<?xml version="1.0" encoding="UTF-8"?>
<svg xmlns="http://www.w3.org/2000/svg" xmlns:xlink="http://www.w3.org/1999/xlink" width="396pt" height="88pt" viewBox="0 0 396 88" version="1.1">
<g id="surface1">
<path style=" stroke:none;fill-rule:nonzero;fill:rgb(7.45098%,7.45098%,22.352941%);fill-opacity:1;" d="M 158.976562 2.828125 C 181.933594 2.875 204.886719 2.878906 227.84375 2.914062 C 229.394531 3.101562 230.964844 2.972656 232.523438 3.011719 C 262.824219 2.992188 293.121094 3.054688 323.421875 3.082031 C 325.554688 3.117188 327.691406 2.988281 329.816406 3.183594 C 339.632812 3.183594 349.445312 3.175781 359.261719 3.183594 C 366.050781 3.171875 372.839844 3.230469 379.632812 3.183594 C 379.621094 8.65625 379.636719 14.136719 379.636719 19.613281 C 379.78125 20.820312 379.722656 22.035156 379.730469 23.25 C 379.777344 36.261719 379.820312 49.28125 379.804688 62.292969 C 379.980469 63.789062 379.90625 65.296875 379.917969 66.796875 C 379.949219 72.84375 379.953125 78.890625 379.980469 84.9375 C 368.398438 84.929688 356.816406 84.976562 345.234375 84.953125 C 343.84375 84.984375 342.441406 84.871094 341.058594 85.066406 C 324.5 85.101562 307.945312 85.152344 291.386719 85.125 C 290.855469 85.097656 290.335938 85.203125 289.808594 85.242188 C 273.3125 85.273438 256.8125 85.328125 240.3125 85.296875 C 239.78125 85.273438 239.257812 85.363281 238.734375 85.414062 C 222.0625 85.453125 205.386719 85.496094 188.714844 85.476562 C 187.792969 85.5625 186.871094 85.632812 185.949219 85.59375 C 176.957031 85.609375 167.96875 85.617188 158.976562 85.660156 C 148.484375 71.828125 138.09375 57.914062 127.621094 44.066406 C 135.597656 33.558594 143.585938 23.058594 151.566406 12.554688 C 154.039062 9.316406 156.476562 6.046875 158.976562 2.828125 M 181.867188 25.957031 C 178.738281 26.371094 175.574219 27.765625 173.710938 30.414062 C 171.988281 32.714844 171.554688 35.734375 171.917969 38.527344 C 172.171875 40.5 173.121094 42.339844 174.433594 43.8125 C 176.246094 45.78125 178.710938 46.953125 181.113281 48.035156 C 182.855469 48.84375 184.6875 49.542969 186.1875 50.773438 C 186.90625 51.398438 187.601562 52.15625 187.792969 53.121094 C 188.085938 54.722656 187.578125 56.546875 186.253906 57.5625 C 184.789062 58.664062 182.875 58.921875 181.09375 58.796875 C 178.449219 58.71875 175.917969 57.710938 173.671875 56.363281 C 173.226562 56.117188 172.792969 55.792969 172.273438 55.738281 C 171.816406 55.695312 171.480469 56.101562 171.390625 56.507812 C 171.089844 57.597656 171.164062 58.738281 171.179688 59.851562 C 171.210938 60.765625 171.371094 61.816406 172.175781 62.378906 C 174.042969 63.746094 176.332031 64.367188 178.574219 64.777344 C 181.898438 65.316406 185.378906 65.066406 188.53125 63.851562 C 190.863281 62.941406 192.953125 61.320312 194.246094 59.15625 C 195.65625 56.898438 196.054688 54.128906 195.785156 51.515625 C 195.566406 49.410156 194.554688 47.4375 193.125 45.90625 C 190.648438 43.375 187.230469 42.195312 184.101562 40.714844 C 182.605469 40.007812 181.0625 39.175781 180.113281 37.765625 C 179.429688 36.597656 179.472656 35.066406 180.101562 33.882812 C 180.734375 32.71875 182.023438 32.097656 183.285156 31.894531 C 185.664062 31.550781 188.085938 32.140625 190.222656 33.195312 C 190.917969 33.519531 191.566406 33.941406 192.273438 34.242188 C 192.636719 34.421875 193.171875 34.371094 193.351562 33.957031 C 193.703125 33.160156 193.640625 32.257812 193.675781 31.40625 C 193.648438 30.476562 193.730469 29.507812 193.394531 28.625 C 193.0625 27.917969 192.300781 27.585938 191.640625 27.265625 C 188.59375 25.917969 185.160156 25.492188 181.867188 25.957031 M 337.503906 25.902344 C 334.179688 26.226562 330.867188 27.351562 328.246094 29.46875 C 325.890625 31.335938 324.195312 33.949219 323.226562 36.777344 C 321.75 41 321.628906 45.574219 322.082031 49.984375 C 322.507812 53.585938 323.558594 57.28125 325.984375 60.0625 C 328.332031 62.816406 331.855469 64.277344 335.375 64.761719 C 339.046875 65.238281 342.867188 65.175781 346.402344 63.996094 C 349.6875 62.933594 352.609375 60.746094 354.457031 57.8125 C 356.574219 54.515625 357.425781 50.5625 357.613281 46.6875 C 357.785156 42.441406 357.445312 38.039062 355.648438 34.132812 C 354.335938 31.203125 351.960938 28.757812 349.019531 27.453125 C 345.425781 25.859375 341.378906 25.574219 337.503906 25.902344 M 233.300781 26.3125 C 232.589844 26.394531 231.839844 26.421875 231.207031 26.785156 C 230.859375 26.96875 230.777344 27.382812 230.792969 27.742188 C 230.792969 34.515625 230.792969 41.289062 230.792969 48.058594 C 230.796875 49.914062 230.757812 51.78125 231.019531 53.617188 C 231.3125 55.671875 231.984375 57.691406 233.136719 59.425781 C 234.722656 61.851562 237.285156 63.492188 240.042969 64.261719 C 243.367188 65.191406 246.902344 65.253906 250.292969 64.679688 C 253.5625 64.09375 256.785156 62.542969 258.835938 59.855469 C 260.96875 57.117188 261.730469 53.5625 261.714844 50.148438 C 261.71875 42.632812 261.722656 35.113281 261.714844 27.59375 C 261.78125 27.019531 261.269531 26.644531 260.765625 26.542969 C 259.40625 26.21875 257.984375 26.230469 256.597656 26.3125 C 255.871094 26.394531 255.085938 26.414062 254.457031 26.828125 C 254.136719 27.019531 254.121094 27.421875 254.121094 27.753906 C 254.125 35.21875 254.121094 42.679688 254.121094 50.144531 C 254.121094 51.707031 253.925781 53.316406 253.210938 54.726562 C 252.351562 56.707031 250.441406 58.109375 248.347656 58.523438 C 246.8125 58.820312 245.207031 58.777344 243.699219 58.355469 C 242.066406 57.84375 240.550781 56.789062 239.707031 55.269531 C 238.757812 53.617188 238.5 51.671875 238.496094 49.796875 C 238.492188 42.394531 238.503906 34.996094 238.492188 27.597656 C 238.570312 26.972656 237.945312 26.636719 237.425781 26.523438 C 236.074219 26.222656 234.675781 26.234375 233.300781 26.3125 M 197.527344 27.757812 C 197.351562 28.960938 197.351562 30.191406 197.523438 31.394531 C 197.621094 31.964844 197.871094 32.785156 198.59375 32.742188 C 201.730469 32.757812 204.863281 32.738281 208 32.75 C 208.011719 42.882812 207.996094 53.011719 208.003906 63.144531 C 207.972656 63.550781 208.175781 63.953125 208.5625 64.109375 C 209.339844 64.453125 210.210938 64.492188 211.050781 64.539062 C 212.378906 64.546875 213.753906 64.605469 215.035156 64.175781 C 215.46875 64.042969 215.78125 63.628906 215.726562 63.167969 C 215.734375 53.027344 215.726562 42.886719 215.730469 32.75 C 218.789062 32.746094 221.851562 32.746094 224.910156 32.75 C 225.261719 32.761719 225.675781 32.710938 225.875 32.375 C 226.34375 31.625 226.296875 30.6875 226.351562 29.835938 C 226.332031 28.890625 226.371094 27.894531 226.003906 27.003906 C 225.832031 26.566406 225.34375 26.40625 224.910156 26.4375 C 216.140625 26.445312 207.367188 26.425781 198.597656 26.445312 C 197.882812 26.402344 197.613281 27.183594 197.527344 27.757812 M 271.722656 26.492188 C 270.597656 26.597656 269.863281 27.703125 269.929688 28.785156 C 269.910156 39.722656 269.929688 50.664062 269.917969 61.601562 C 269.921875 62.269531 269.945312 63.007812 270.375 63.5625 C 270.824219 64.164062 271.609375 64.386719 272.332031 64.367188 C 274.761719 64.367188 277.191406 64.367188 279.617188 64.367188 C 283.480469 64.402344 287.441406 64.238281 291.09375 62.855469 C 294.316406 61.679688 297.15625 59.390625 298.804688 56.355469 C 300.890625 52.699219 301.402344 48.390625 301.347656 44.246094 C 301.292969 40.441406 300.460938 36.523438 298.273438 33.351562 C 296.507812 30.734375 293.824219 28.8125 290.867188 27.769531 C 286.433594 26.175781 281.648438 26.472656 277.019531 26.4375 C 275.253906 26.472656 273.484375 26.367188 271.722656 26.492188 M 308.941406 26.476562 C 308.375 26.574219 307.609375 26.867188 307.671875 27.574219 C 307.65625 39.382812 307.671875 51.1875 307.664062 62.992188 C 307.632812 63.402344 307.71875 63.882812 308.140625 64.066406 C 308.898438 64.441406 309.765625 64.480469 310.601562 64.535156 C 311.929688 64.546875 313.296875 64.613281 314.585938 64.214844 C 315.046875 64.085938 315.460938 63.679688 315.390625 63.164062 C 315.390625 51.308594 315.394531 39.449219 315.386719 27.59375 C 315.453125 26.847656 314.632812 26.558594 314.039062 26.460938 C 312.355469 26.1875 310.621094 26.191406 308.941406 26.476562 Z M 308.941406 26.476562 "/>
<path style=" stroke:none;fill-rule:nonzero;fill:rgb(7.45098%,7.45098%,22.352941%);fill-opacity:1;" d="M 79.527344 15.660156 C 83.761719 15.257812 88.179688 15.953125 91.898438 18.085938 C 92.855469 18.636719 93.859375 19.390625 94.089844 20.539062 C 94.371094 21.976562 94.347656 23.457031 94.273438 24.910156 C 94.195312 25.671875 94.128906 26.550781 93.53125 27.097656 C 92.996094 27.503906 92.332031 27.113281 91.863281 26.792969 C 89.953125 25.386719 87.832031 24.210938 85.519531 23.636719 C 82.863281 23.097656 79.964844 23.160156 77.515625 24.421875 C 75.238281 25.585938 73.53125 27.667969 72.515625 29.988281 C 71.25 32.882812 70.847656 36.078125 70.855469 39.210938 C 70.878906 42.796875 71.332031 46.535156 73.183594 49.675781 C 74.449219 51.871094 76.582031 53.539062 79.03125 54.195312 C 81.226562 54.808594 83.570312 54.800781 85.796875 54.359375 C 88.046875 53.8125 90.164062 52.789062 92.066406 51.480469 C 92.578125 51.148438 93.300781 50.738281 93.871094 51.164062 C 94.390625 51.789062 94.351562 52.675781 94.429688 53.445312 C 94.4375 54.832031 94.558594 56.257812 94.1875 57.609375 C 93.902344 58.703125 92.917969 59.382812 91.984375 59.898438 C 88.496094 61.804688 84.464844 62.574219 80.515625 62.492188 C 77.085938 62.4375 73.621094 61.71875 70.589844 60.078125 C 67.675781 58.492188 65.269531 55.996094 63.753906 53.046875 C 61.078125 47.964844 60.625 42.035156 61.019531 36.394531 C 61.472656 30.921875 63.296875 25.34375 67.171875 21.332031 C 70.375 17.941406 74.9375 16.085938 79.527344 15.660156 Z M 79.527344 15.660156 "/>
<path style=" stroke:none;fill-rule:nonzero;fill:rgb(7.45098%,7.45098%,22.352941%);fill-opacity:1;" d="M 18.074219 16.242188 C 19.660156 16.015625 21.273438 16.035156 22.871094 16.15625 C 23.597656 16.261719 24.386719 16.324219 25.003906 16.761719 C 25.359375 17.003906 25.417969 17.464844 25.410156 17.859375 C 25.40625 26.074219 25.410156 34.289062 25.40625 42.507812 C 25.394531 44.859375 25.359375 47.289062 26.222656 49.515625 C 27.039062 51.792969 28.898438 53.671875 31.207031 54.417969 C 33.605469 55.195312 36.277344 55.1875 38.65625 54.339844 C 40.8125 53.570312 42.515625 51.78125 43.316406 49.648438 C 43.910156 48.15625 44.132812 46.539062 44.128906 44.9375 C 44.128906 35.914062 44.128906 26.886719 44.128906 17.863281 C 44.109375 17.402344 44.214844 16.871094 44.667969 16.648438 C 45.460938 16.234375 46.386719 16.183594 47.261719 16.113281 C 48.847656 16.054688 50.464844 16 52.019531 16.375 C 52.5 16.5 53.078125 16.71875 53.210938 17.257812 C 53.300781 17.742188 53.25 18.246094 53.261719 18.738281 C 53.257812 26.429688 53.261719 34.121094 53.261719 41.8125 C 53.253906 44.46875 53.351562 47.164062 52.75 49.769531 C 52.066406 53.003906 50.492188 56.125 47.960938 58.292969 C 44.960938 60.933594 40.976562 62.148438 37.054688 62.460938 C 32.910156 62.769531 28.59375 62.445312 24.765625 60.71875 C 21.667969 59.339844 19.140625 56.769531 17.789062 53.660156 C 16.523438 50.882812 16.183594 47.792969 16.167969 44.769531 C 16.164062 35.800781 16.167969 26.835938 16.164062 17.867188 C 16.179688 17.515625 16.179688 17.101562 16.453125 16.839844 C 16.894531 16.4375 17.511719 16.355469 18.074219 16.242188 Z M 18.074219 16.242188 "/>
<path style=" stroke:none;fill-rule:nonzero;fill:rgb(7.45098%,7.45098%,22.352941%);fill-opacity:1;" d="M 100.082031 27.886719 C 101.800781 27.785156 103.53125 27.78125 105.253906 27.882812 C 106.0625 27.960938 107.097656 27.953125 107.527344 28.792969 C 109.464844 32.296875 111.285156 35.863281 113.210938 39.371094 C 114.902344 36.253906 116.535156 33.097656 118.203125 29.964844 C 118.488281 29.449219 118.71875 28.886719 119.101562 28.433594 C 119.527344 28.042969 120.136719 27.996094 120.679688 27.914062 C 122.285156 27.757812 123.90625 27.792969 125.515625 27.875 C 126.117188 27.941406 126.851562 27.960938 127.242188 28.503906 C 127.460938 29.070312 127.09375 29.632812 126.859375 30.136719 C 124.285156 34.839844 121.714844 39.550781 119.128906 44.253906 C 121.796875 49.144531 124.488281 54.027344 127.167969 58.914062 C 127.503906 59.582031 128.039062 60.25 127.960938 61.042969 C 127.675781 61.691406 126.875 61.761719 126.265625 61.859375 C 124.640625 62.015625 123.003906 61.996094 121.375 61.960938 C 120.507812 61.910156 119.609375 61.914062 118.796875 61.566406 C 118.179688 61.3125 117.972656 60.625 117.671875 60.09375 C 115.855469 56.609375 114.066406 53.113281 112.226562 49.640625 C 110.496094 52.898438 108.820312 56.183594 107.113281 59.449219 C 106.765625 60.082031 106.496094 60.761719 106.035156 61.320312 C 105.601562 61.726562 104.976562 61.804688 104.414062 61.882812 C 102.738281 62.027344 101.050781 62.007812 99.371094 61.917969 C 98.734375 61.851562 98.023438 61.824219 97.503906 61.402344 C 97.066406 61.003906 97.347656 60.375 97.570312 59.941406 C 100.40625 54.855469 103.273438 49.785156 106.109375 44.699219 C 106.273438 44.484375 106.054688 44.257812 105.976562 44.0625 C 103.414062 39.445312 100.875 34.820312 98.320312 30.203125 C 98.089844 29.695312 97.703125 29.066406 98.042969 28.523438 C 98.566406 27.988281 99.382812 27.980469 100.082031 27.886719 Z M 100.082031 27.886719 "/>
<path style=" stroke:none;fill-rule:nonzero;fill:rgb(7.45098%,7.45098%,22.352941%);fill-opacity:1;" d="M 338.214844 32.207031 C 339.96875 32.011719 341.785156 32.082031 343.472656 32.628906 C 345.40625 33.238281 347.03125 34.691406 347.960938 36.488281 C 349.332031 39.128906 349.523438 42.1875 349.589844 45.109375 C 349.527344 48.296875 349.3125 51.664062 347.636719 54.46875 C 346.652344 56.164062 345.054688 57.5 343.207031 58.152344 C 341.46875 58.726562 339.601562 58.773438 337.800781 58.566406 C 335.855469 58.34375 333.929688 57.503906 332.644531 55.988281 C 331.035156 54.09375 330.402344 51.582031 330.128906 49.160156 C 329.824219 46.371094 329.832031 43.535156 330.316406 40.769531 C 330.699219 38.226562 331.8125 35.683594 333.851562 34.046875 C 335.082031 33.015625 336.625 32.402344 338.214844 32.207031 Z M 338.214844 32.207031 "/>
<path style=" stroke:none;fill-rule:nonzero;fill:rgb(7.45098%,7.45098%,22.352941%);fill-opacity:1;" d="M 277.578125 32.46875 C 280.140625 32.503906 282.738281 32.320312 285.265625 32.84375 C 287.824219 33.355469 290.183594 34.914062 291.527344 37.175781 C 293.28125 40.085938 293.542969 43.613281 293.351562 46.933594 C 293.152344 49.835938 292.429688 52.875 290.429688 55.082031 C 289.128906 56.546875 287.3125 57.488281 285.410156 57.894531 C 282.835938 58.449219 280.1875 58.230469 277.578125 58.273438 C 277.585938 49.671875 277.585938 41.070312 277.578125 32.46875 Z M 277.578125 32.46875 "/>
</g>
</svg>
