<?xml version="1.0" encoding="UTF-8"?>
<svg xmlns="http://www.w3.org/2000/svg" xmlns:xlink="http://www.w3.org/1999/xlink" width="399pt" height="88pt" viewBox="0 0 399 88" version="1.1">
<g id="surface1">
<path style=" stroke:none;fill-rule:nonzero;fill:rgb(8.235294%,8.627451%,23.137255%);fill-opacity:1;" d="M 168.917969 3.054688 C 190.867188 3.042969 212.816406 3.035156 234.765625 3.058594 C 240.617188 3.320312 246.476562 3.183594 252.332031 3.214844 C 278.792969 3.21875 305.253906 3.207031 331.710938 3.21875 C 339.195312 3.507812 346.6875 3.34375 354.175781 3.382812 C 363.839844 3.417969 373.507812 3.320312 383.171875 3.433594 C 383.300781 14.191406 383.179688 24.949219 383.230469 35.707031 C 383.558594 46.480469 383.324219 57.257812 383.390625 68.03125 C 383.269531 72.980469 383.703125 77.921875 383.523438 82.867188 C 369.40625 83.007812 355.285156 82.867188 341.167969 82.9375 C 331.660156 83.265625 322.140625 83.015625 312.625 83.09375 C 301.703125 83.167969 290.777344 82.914062 279.859375 83.269531 C 264.941406 83.273438 250.019531 83.222656 235.101562 83.292969 C 230.9375 83.527344 226.769531 83.410156 222.605469 83.429688 C 212.46875 83.441406 202.335938 83.410156 192.203125 83.445312 C 184.941406 83.75 177.675781 83.523438 170.414062 83.625 C 169.847656 83.554688 169.003906 83.792969 168.644531 83.175781 C 158.761719 70.007812 148.855469 56.855469 138.949219 43.707031 C 138.636719 43.375 138.621094 42.921875 138.925781 42.582031 C 148.929688 29.410156 158.949219 16.246094 168.917969 3.054688 M 186.800781 27.082031 C 181.304688 29.792969 179.964844 37.941406 183.890625 42.519531 C 186.011719 44.898438 189.003906 46.152344 191.863281 47.390625 C 193.742188 48.308594 195.824219 49.222656 196.921875 51.117188 C 197.476562 51.984375 197.253906 53.078125 197.144531 54.035156 C 196.851562 55.4375 195.652344 56.464844 194.394531 57.023438 C 191.78125 58.082031 188.859375 57.609375 186.277344 56.71875 C 184.605469 56.171875 183.230469 54.996094 181.539062 54.507812 C 180.769531 56.261719 180.894531 58.3125 181.335938 60.132812 C 182.503906 61.527344 184.308594 62.054688 185.972656 62.582031 C 189.546875 63.515625 193.375 63.425781 196.921875 62.421875 C 200.871094 61.265625 204.058594 57.699219 204.457031 53.554688 C 204.84375 50.511719 204.191406 47.128906 201.902344 44.945312 C 198.71875 41.640625 193.960938 40.894531 190.339844 38.25 C 189.351562 37.410156 188.65625 36.089844 188.890625 34.761719 C 189.011719 32.472656 191.402344 30.902344 193.558594 30.984375 C 196.53125 30.796875 199.175781 32.273438 201.746094 33.523438 C 201.859375 33.46875 202.082031 33.351562 202.195312 33.292969 C 202.332031 31.65625 202.464844 29.996094 202.234375 28.367188 C 202.109375 27.667969 201.410156 27.316406 200.84375 27.035156 C 196.433594 25.09375 191.164062 24.902344 186.800781 27.082031 M 344.125 25.511719 C 341.976562 25.570312 339.867188 26.027344 337.804688 26.609375 C 333.164062 28.210938 329.484375 32.277344 328.277344 37.042969 C 327.03125 40.628906 327.296875 44.507812 327.445312 48.242188 C 327.476562 50.636719 328.308594 52.910156 329.050781 55.15625 C 330.832031 59.585938 335.328125 62.480469 339.980469 62.957031 C 343.121094 63.421875 346.316406 63.207031 349.4375 62.691406 C 352.097656 62.019531 354.675781 60.777344 356.59375 58.777344 C 360.324219 55.125 361.410156 49.644531 361.554688 44.621094 C 361.480469 40.566406 361.179688 36.324219 359.195312 32.699219 C 357.515625 29.257812 354.042969 26.863281 350.316406 26.1875 C 348.292969 25.726562 346.207031 25.40625 344.125 25.511719 M 239.488281 26.394531 C 238.648438 26.636719 238.8125 27.789062 238.796875 28.425781 C 238.851562 34.914062 238.789062 41.40625 238.828125 47.894531 C 238.988281 51.039062 239 54.410156 240.675781 57.203125 C 241.835938 59.417969 243.921875 61.03125 246.191406 62 C 248.367188 63 250.8125 63.175781 253.171875 63.246094 C 255.652344 63.0625 258.253906 63.125 260.5625 62.074219 C 262.25 61.429688 263.859375 60.5 265.097656 59.167969 C 267.507812 56.570312 268.488281 52.898438 268.386719 49.417969 C 268.371094 41.78125 268.363281 34.148438 268.390625 26.511719 C 266.359375 25.863281 264.164062 25.9375 262.101562 26.378906 C 261.765625 26.433594 261.546875 26.695312 261.570312 27.03125 C 261.652344 34.210938 261.613281 41.394531 261.621094 48.574219 C 261.644531 50.941406 261.175781 53.460938 259.488281 55.234375 C 256.320312 58.59375 250.164062 58.238281 247.4375 54.484375 C 246.105469 52.515625 245.871094 50.039062 245.902344 47.726562 C 245.914062 40.664062 245.914062 33.605469 245.914062 26.542969 C 243.84375 25.855469 241.59375 25.914062 239.488281 26.394531 M 313.445312 26.660156 C 313.507812 38.535156 313.449219 50.410156 313.472656 62.285156 C 315.035156 62.960938 316.769531 62.75 318.425781 62.742188 C 319.105469 62.738281 319.769531 62.570312 320.410156 62.34375 C 320.382812 50.398438 320.390625 38.453125 320.40625 26.511719 C 318.148438 25.863281 315.65625 25.8125 313.445312 26.660156 M 207.003906 26.207031 C 206.230469 27.789062 206.339844 29.65625 206.699219 31.335938 C 206.816406 32.050781 207.765625 31.882812 208.25 31.957031 C 211.105469 32.050781 213.960938 31.933594 216.820312 32.035156 C 216.902344 42.078125 216.871094 52.125 216.832031 62.167969 C 217.4375 62.523438 218.117188 62.765625 218.828125 62.757812 C 220.410156 62.753906 222.039062 62.886719 223.574219 62.40625 C 224.148438 62.082031 223.882812 61.253906 223.976562 60.757812 C 223.945312 51.152344 223.945312 41.550781 223.96875 31.945312 C 227.035156 31.945312 230.113281 32.117188 233.179688 31.902344 C 234.109375 31.730469 234.132812 30.503906 234.113281 29.789062 C 234.0625 28.742188 234.210938 27.632812 233.847656 26.632812 C 233.636719 26.054688 232.820312 26.269531 232.40625 26.214844 C 223.9375 26.226562 215.472656 26.253906 207.003906 26.207031 M 278.238281 26.316406 C 277.03125 26.445312 276.730469 27.945312 276.820312 28.933594 C 276.828125 39.375 276.800781 49.816406 276.832031 60.253906 C 276.679688 61.355469 277.410156 62.589844 278.5625 62.707031 C 283.097656 62.949219 287.65625 62.796875 292.175781 62.335938 C 294.429688 61.917969 296.765625 61.582031 298.800781 60.460938 C 301.3125 59.230469 303.460938 57.214844 304.726562 54.699219 C 305.921875 52.25 306.601562 49.5625 306.832031 46.851562 C 306.964844 43.714844 307.007812 40.507812 306.152344 37.457031 C 305.414062 34.984375 304.21875 32.589844 302.355469 30.773438 C 300.542969 29.039062 298.304688 27.753906 295.882812 27.105469 C 292.902344 26.089844 289.710938 26.289062 286.617188 26.226562 C 283.824219 26.261719 281.023438 26.113281 278.238281 26.316406 Z M 278.238281 26.316406 "/>
<path style=" stroke:none;fill-rule:nonzero;fill:rgb(8.235294%,8.627451%,23.137255%);fill-opacity:1;" d="M 108.503906 18.03125 C 111.554688 17.628906 114.601562 18.242188 117.488281 19.191406 C 118.953125 19.761719 120.390625 20.472656 121.574219 21.523438 C 122.359375 22.304688 122.324219 23.519531 122.433594 24.542969 C 122.46875 25.964844 122.628906 27.492188 121.988281 28.8125 C 121.558594 29.59375 120.453125 29.261719 119.921875 28.765625 C 117.820312 27.277344 115.507812 26 112.921875 25.632812 C 110.792969 25.425781 108.523438 25.402344 106.570312 26.402344 C 104.625 27.234375 103.019531 28.773438 102.019531 30.632812 C 99.9375 34.238281 99.582031 38.546875 99.683594 42.625 C 99.902344 45.484375 100.433594 48.410156 101.84375 50.941406 C 102.9375 52.851562 104.667969 54.394531 106.722656 55.199219 C 110.3125 56.40625 114.378906 56.160156 117.726562 54.332031 C 119.152344 53.769531 120.273438 52.398438 121.910156 52.464844 C 122.613281 53.226562 122.46875 54.386719 122.589844 55.34375 C 122.621094 57.019531 122.828125 59.132812 121.3125 60.285156 C 118.8125 62.117188 115.710938 62.945312 112.675781 63.332031 C 108.835938 63.757812 104.835938 63.523438 101.230469 62.035156 C 97.917969 60.703125 95 58.296875 93.253906 55.152344 C 90.664062 50.796875 89.980469 45.597656 90.023438 40.613281 C 90.117188 34.796875 91.613281 28.746094 95.488281 24.257812 C 98.71875 20.472656 103.597656 18.375 108.503906 18.03125 Z M 108.503906 18.03125 "/>
<path style=" stroke:none;fill-rule:nonzero;fill:rgb(8.235294%,8.627451%,23.137255%);fill-opacity:1;" d="M 49.730469 18.527344 C 51.28125 18.421875 52.871094 18.335938 54.378906 18.804688 C 55.09375 18.859375 55.804688 19.515625 55.550781 20.304688 C 55.613281 28.765625 55.527344 37.234375 55.574219 45.695312 C 55.597656 48.082031 55.894531 50.601562 57.25 52.636719 C 58.789062 55.132812 61.847656 56.316406 64.683594 56.214844 C 67.628906 56.421875 70.75 55.050781 72.265625 52.445312 C 73.632812 50.371094 73.800781 47.769531 73.8125 45.355469 C 73.820312 36.890625 73.789062 28.425781 73.808594 19.960938 C 73.761719 19.316406 74.402344 18.847656 74.992188 18.804688 C 77.296875 18.328125 79.78125 18.191406 82.027344 19.015625 C 82.839844 19.390625 82.484375 20.453125 82.601562 21.148438 C 82.589844 29.613281 82.582031 38.074219 82.597656 46.539062 C 82.679688 50.128906 81.78125 53.777344 79.832031 56.8125 C 78.40625 58.984375 76.304688 60.65625 73.964844 61.753906 C 70.304688 63.410156 66.171875 63.746094 62.207031 63.574219 C 59.339844 63.285156 56.40625 62.730469 53.894531 61.242188 C 50.898438 59.664062 48.726562 56.78125 47.691406 53.589844 C 46.691406 50.679688 46.667969 47.550781 46.609375 44.507812 C 46.621094 36.609375 46.617188 28.707031 46.605469 20.808594 C 46.566406 20.175781 46.585938 19.25 47.285156 18.953125 C 48.070312 18.6875 48.90625 18.609375 49.730469 18.527344 Z M 49.730469 18.527344 "/>
<path style=" stroke:none;fill-rule:nonzero;fill:rgb(8.235294%,8.627451%,23.137255%);fill-opacity:1;" d="M 342.933594 31.394531 C 345.652344 31.035156 348.671875 31.433594 350.738281 33.394531 C 352.882812 35.363281 353.785156 38.277344 354.058594 41.097656 C 354.335938 44.839844 354.351562 48.777344 352.808594 52.277344 C 352.207031 53.617188 351.175781 54.6875 350.101562 55.65625 C 348.324219 57.109375 345.960938 57.507812 343.726562 57.5 C 341.5 57.382812 339.144531 56.742188 337.59375 55.03125 C 336.058594 53.507812 335.367188 51.363281 335.046875 49.273438 C 334.503906 45.660156 334.414062 41.910156 335.363281 38.355469 C 336.289062 34.851562 339.207031 31.714844 342.933594 31.394531 Z M 342.933594 31.394531 "/>
<path style=" stroke:none;fill-rule:nonzero;fill:rgb(8.235294%,8.627451%,23.137255%);fill-opacity:1;" d="M 283.953125 31.699219 C 286.644531 31.660156 289.402344 31.386719 292.035156 32.148438 C 295.605469 32.980469 298.28125 36.164062 299.160156 39.644531 C 299.730469 42.65625 299.726562 45.765625 299.230469 48.789062 C 298.585938 51.894531 296.539062 54.777344 293.597656 56.074219 C 290.539062 57.367188 287.144531 56.988281 283.914062 57.027344 C 283.9375 48.585938 283.859375 40.140625 283.953125 31.699219 Z M 283.953125 31.699219 "/>
</g>
</svg>
