<?xml version="1.0" encoding="UTF-8" ?>
<!DOCTYPE svg PUBLIC "-//W3C//DTD SVG 1.1//EN" "http://www.w3.org/Graphics/SVG/1.1/DTD/svg11.dtd">
<svg width="457pt" height="141pt" viewBox="0 0 457 141" version="1.1" xmlns="http://www.w3.org/2000/svg">
<g id="#8b8d90ff">
<path fill="#8b8d90" opacity="1.00" d=" M 52.45 18.51 C 56.35 17.65 60.83 18.41 63.62 21.46 C 68.53 26.38 67.52 35.90 61.29 39.28 C 55.73 42.62 47.31 40.29 45.12 33.94 C 42.45 27.95 45.87 19.97 52.45 18.51 M 53.39 20.59 C 48.94 21.68 46.09 26.53 46.91 30.96 C 47.38 35.35 51.54 39.01 56.01 38.54 C 61.29 38.54 65.06 32.86 64.02 27.91 C 63.55 22.95 58.21 19.23 53.39 20.59 Z" />
<path fill="#8b8d90" opacity="1.00" d=" M 26.22 18.84 C 29.77 18.90 33.61 18.09 36.94 19.71 C 40.49 21.50 40.50 27.38 37.03 29.26 C 34.50 30.71 31.51 30.16 28.74 30.28 C 28.72 33.53 28.87 36.79 28.67 40.04 C 27.90 40.23 27.12 40.38 26.33 40.48 C 26.14 33.27 26.33 26.05 26.22 18.84 M 28.76 20.68 C 28.75 23.22 28.75 25.75 28.75 28.29 C 31.71 28.20 36.44 28.91 37.26 25.05 C 37.69 20.35 31.91 20.72 28.76 20.68 Z" />
<path fill="#8b8d90" opacity="1.00" d=" M 69.18 18.53 C 69.79 18.64 71.02 18.87 71.63 18.98 C 73.60 24.64 74.82 30.53 76.77 36.20 C 78.80 30.49 80.25 24.60 81.99 18.79 C 82.72 18.78 84.19 18.76 84.92 18.75 C 86.66 24.54 87.97 30.47 90.18 36.11 C 91.98 30.45 93.31 24.64 95.20 19.01 C 95.83 18.89 97.09 18.65 97.73 18.52 C 95.75 25.88 93.53 33.18 91.30 40.47 C 90.69 40.37 89.47 40.17 88.86 40.07 C 86.62 34.45 85.40 28.45 83.56 22.69 C 81.23 28.32 80.23 34.38 78.08 40.07 C 77.40 40.12 76.04 40.22 75.36 40.27 C 73.43 32.99 70.94 25.86 69.18 18.53 Z" />
<path fill="#8b8d90" opacity="1.00" d=" M 103.00 18.75 C 107.48 18.74 111.96 18.77 116.44 18.72 C 116.62 19.82 116.92 21.30 115.19 20.95 C 111.96 21.11 108.73 20.97 105.50 20.99 C 105.50 23.33 105.50 25.67 105.51 28.01 C 109.05 27.98 112.60 27.94 116.15 28.16 C 116.01 28.58 115.74 29.42 115.61 29.83 C 112.26 30.19 108.87 29.95 105.51 29.99 C 105.50 32.66 105.50 35.33 105.50 38.00 C 109.22 38.03 112.94 37.90 116.66 38.05 C 116.63 38.59 116.59 39.67 116.56 40.21 C 112.04 40.35 107.52 40.20 103.00 40.25 C 103.00 33.08 103.00 25.92 103.00 18.75 Z" />
<path fill="#8b8d90" opacity="1.00" d=" M 123.21 18.85 C 127.56 19.00 133.33 17.42 136.31 21.57 C 138.47 25.17 135.71 29.57 131.85 30.28 C 133.85 33.64 136.03 36.91 137.87 40.36 C 137.15 40.29 135.69 40.14 134.96 40.06 C 132.69 36.95 131.03 33.46 128.95 30.23 C 128.15 30.24 126.54 30.28 125.74 30.29 C 125.76 33.63 125.78 36.97 125.67 40.31 C 125.08 40.31 123.90 40.30 123.31 40.29 C 123.16 33.15 123.32 26.00 123.21 18.85 M 125.75 20.69 C 125.75 23.23 125.75 25.76 125.75 28.30 C 128.19 28.09 130.99 28.62 133.15 27.23 C 135.32 25.96 134.82 22.41 132.62 21.47 C 130.45 20.61 128.04 20.85 125.75 20.69 Z" />
<path fill="#8b8d90" opacity="1.00" d=" M 143.00 18.75 C 147.41 18.74 151.82 18.77 156.23 18.73 C 156.37 19.25 156.66 20.29 156.81 20.81 C 153.05 21.09 149.27 21.01 145.50 20.99 C 145.50 23.33 145.50 25.67 145.50 28.00 C 149.03 27.99 152.55 27.95 156.08 28.13 C 155.97 28.55 155.76 29.40 155.65 29.82 C 152.28 30.19 148.88 29.95 145.50 29.99 C 145.50 32.66 145.50 35.33 145.51 38.00 C 149.30 38.00 153.10 37.99 156.90 38.00 C 156.80 38.55 156.60 39.65 156.51 40.19 C 152.01 40.36 147.50 40.20 143.00 40.25 C 143.00 33.08 143.00 25.92 143.00 18.75 Z" />
<path fill="#8b8d90" opacity="1.00" d=" M 163.23 18.81 C 168.30 18.88 174.35 17.69 178.34 21.67 C 183.24 25.92 182.70 34.75 177.16 38.23 C 173.07 41.03 167.88 40.19 163.22 40.16 C 163.27 33.04 163.26 25.92 163.23 18.81 M 165.50 20.99 C 165.50 26.67 165.48 32.35 165.51 38.02 C 169.08 37.99 173.12 38.44 176.07 35.99 C 180.29 32.73 180.01 25.39 175.47 22.54 C 172.58 20.41 168.85 21.08 165.50 20.99 Z" />
<path fill="#8b8d90" opacity="1.00" d=" M 198.23 18.79 C 201.85 18.87 205.72 18.18 209.12 19.73 C 212.50 21.50 212.34 26.77 209.09 28.60 C 211.90 30.25 213.74 33.67 211.93 36.77 C 209.13 41.46 202.78 40.11 198.21 40.15 C 198.28 33.03 198.25 25.91 198.23 18.79 M 200.51 20.67 C 200.50 23.12 200.50 25.58 200.50 28.03 C 203.42 27.93 208.20 28.81 209.11 24.98 C 209.43 20.31 203.65 20.80 200.51 20.67 M 200.50 29.97 C 200.50 32.65 200.50 35.34 200.51 38.03 C 202.88 37.92 205.37 38.30 207.66 37.53 C 210.01 36.72 211.03 33.45 209.37 31.53 C 206.95 29.39 203.45 30.15 200.50 29.97 Z" />
<path fill="#8b8d90" opacity="1.00" d=" M 215.10 18.54 C 215.83 18.65 217.30 18.87 218.03 18.98 C 220.40 22.02 221.83 25.72 224.54 28.51 C 226.68 25.32 228.21 21.60 230.91 18.86 C 231.52 18.81 232.74 18.72 233.35 18.68 C 231.11 22.83 228.17 26.55 225.78 30.60 C 225.13 33.74 225.65 37.05 225.49 40.26 C 224.87 40.25 223.61 40.23 222.99 40.23 C 222.96 37.17 223.17 34.10 222.88 31.05 C 220.51 26.74 217.24 22.98 215.10 18.54 Z" />
<path fill="#8b8d90" opacity="1.00" d=" M 331.24 37.91 C 335.57 37.74 339.93 38.20 344.24 37.55 C 344.31 41.88 344.18 46.21 344.33 50.55 C 346.87 50.75 349.42 50.76 351.96 50.61 L 352.93 50.66 C 352.95 51.09 352.97 51.95 352.98 52.38 C 353.02 69.18 352.99 85.99 353.00 102.79 C 352.99 103.12 352.97 103.76 352.96 104.09 C 350.85 106.40 347.59 106.03 344.76 106.19 L 344.31 106.21 C 344.28 110.60 344.27 114.99 344.23 119.38 C 343.10 119.25 340.86 119.00 339.73 118.87 C 339.75 117.19 339.77 115.51 339.80 113.83 C 331.33 119.34 320.32 120.75 310.84 117.16 C 306.16 115.51 302.13 112.48 298.57 109.09 L 298.90 108.66 C 301.05 105.84 302.99 102.82 304.04 99.40 L 304.12 99.17 C 300.07 99.13 295.89 99.73 291.98 98.40 C 291.56 96.50 291.11 94.61 290.69 92.72 C 295.24 92.62 299.83 92.18 304.33 93.10 C 306.08 97.17 308.67 101.05 312.64 103.23 C 318.62 106.86 326.70 106.55 332.30 102.34 C 338.71 97.71 341.44 88.72 338.71 81.30 C 336.31 73.94 328.74 68.55 320.94 69.22 C 314.55 69.28 309.13 73.48 305.62 78.53 C 304.00 74.14 301.71 70.01 298.89 66.28 L 298.61 65.92 C 308.80 54.51 327.20 52.48 339.78 61.08 C 339.75 57.54 339.77 53.99 339.69 50.45 C 336.92 50.49 334.14 50.50 331.37 50.58 C 331.16 46.36 331.26 42.14 331.24 37.91 Z" />
<path fill="#8b8d90" opacity="1.00" d=" M 291.46 78.19 L 291.62 78.38 C 293.17 79.41 293.69 83.06 290.92 82.05 C 290.71 80.72 290.89 79.44 291.46 78.19 Z" />
</g>
<g id="#1f9fd9ff">
<path fill="#1f9fd9" opacity="1.00" d=" M 431.42 37.58 C 436.87 36.20 441.83 43.61 437.95 47.94 C 435.66 51.32 430.17 51.49 427.74 48.18 C 424.31 44.70 426.97 38.58 431.42 37.58 M 429.86 39.13 L 430.83 39.85 L 433.69 39.95 C 432.55 40.94 430.92 42.22 431.99 43.92 C 433.59 43.28 434.04 41.45 435.02 40.19 C 435.55 41.88 435.34 43.44 434.40 44.89 C 435.05 45.93 435.70 46.96 436.37 47.99 C 438.29 45.90 438.56 42.54 436.58 40.40 C 434.97 38.41 432.07 38.80 429.86 39.13 M 429.19 47.88 C 430.88 49.78 433.66 49.04 435.88 49.01 C 434.43 47.64 433.28 46.01 431.89 44.60 C 431.83 45.52 431.71 47.38 431.65 48.31 C 431.31 48.14 430.64 47.79 430.30 47.62 C 430.14 44.91 430.29 42.19 430.14 39.48 C 427.34 41.28 426.51 45.61 429.19 47.88 Z" />
<path fill="#1f9fd9" opacity="1.00" d=" M 352.94 37.87 C 360.96 37.89 368.98 37.87 376.99 37.88 C 376.99 42.11 377.07 46.35 376.89 50.58 C 374.58 50.51 372.27 50.49 369.97 50.48 C 374.00 55.83 378.45 60.85 382.50 66.18 C 386.89 61.10 391.18 55.91 395.19 50.51 C 392.88 50.48 390.59 50.50 388.29 50.54 C 388.22 46.33 388.25 42.12 388.24 37.92 C 398.97 37.82 409.69 37.90 420.42 37.88 C 420.42 42.07 420.41 46.27 420.45 50.47 C 418.25 50.49 416.06 50.50 413.87 50.48 C 406.49 59.51 399.09 68.52 391.89 77.68 C 399.18 86.58 406.41 95.53 413.65 104.48 C 415.11 106.75 418.22 105.39 420.42 105.77 C 420.43 110.19 420.42 114.60 420.42 119.01 C 409.69 118.99 398.95 119.07 388.22 118.96 C 388.27 114.55 388.20 110.13 388.30 105.72 C 390.94 105.75 393.58 105.76 396.23 105.76 C 391.77 100.11 387.17 94.57 382.70 88.94 C 378.08 94.51 373.55 100.17 369.00 105.80 C 371.66 105.75 374.33 105.74 377.00 105.75 C 377.00 110.17 377.00 114.59 377.00 119.01 C 372.31 119.02 367.63 119.01 362.94 119.01 C 363.06 114.61 363.06 110.21 362.91 105.81 C 359.71 105.73 356.50 105.75 353.30 105.60 C 353.22 105.22 353.04 104.47 352.96 104.09 C 352.97 103.76 352.99 103.12 353.00 102.79 C 359.83 94.42 366.59 85.98 373.45 77.62 C 366.65 69.18 359.80 60.80 352.98 52.38 C 352.97 51.95 352.95 51.09 352.93 50.66 C 352.92 46.40 353.02 42.13 352.94 37.87 Z" />
<path fill="#1f9fd9" opacity="1.00" d=" M 43.46 56.59 C 53.04 54.36 63.72 56.27 71.41 62.57 C 82.09 71.10 85.13 86.85 80.29 99.33 C 77.34 107.07 70.95 113.41 63.20 116.35 C 54.78 119.54 45.03 119.19 36.92 115.23 C 29.27 111.47 23.47 104.27 21.34 96.03 C 18.98 86.85 20.23 76.54 25.70 68.67 C 29.76 62.54 36.39 58.37 43.46 56.59 M 43.41 62.57 C 29.86 66.72 23.88 83.21 28.22 95.98 C 31.06 105.78 40.80 113.09 51.05 112.79 C 59.52 113.17 67.94 108.54 72.18 101.19 C 78.24 90.63 76.80 75.69 67.53 67.40 C 61.17 61.49 51.55 59.89 43.41 62.57 Z" />
<path fill="#1f9fd9" opacity="1.00" d=" M 136.72 57.56 C 149.24 57.45 161.76 57.47 174.27 57.55 C 174.26 59.45 174.25 61.34 174.24 63.24 C 163.84 63.24 153.44 63.29 143.05 63.21 C 142.99 69.99 142.92 76.78 143.09 83.56 C 152.81 83.43 162.53 83.52 172.25 83.51 C 172.25 85.42 172.25 87.33 172.25 89.24 C 162.51 89.24 152.77 89.28 143.03 89.22 C 142.96 96.90 143.01 104.57 143.00 112.25 C 153.72 112.23 164.45 112.29 175.17 112.22 C 175.22 114.14 175.24 116.07 175.28 118.00 C 162.44 118.00 149.60 118.00 136.75 118.00 C 136.73 97.85 136.79 77.71 136.72 57.56 Z" />
<path fill="#1f9fd9" opacity="1.00" d=" M 91.75 57.50 C 101.47 58.08 111.80 55.87 121.02 59.86 C 131.16 64.19 132.22 80.28 123.14 86.26 C 115.76 91.30 106.41 89.75 98.00 90.00 C 98.00 99.33 98.00 108.67 98.00 118.00 C 95.92 118.00 93.83 118.00 91.75 118.00 C 91.75 97.83 91.75 77.67 91.75 57.50 M 98.00 63.00 C 98.00 70.17 98.00 77.33 98.00 84.50 C 104.76 84.11 112.15 85.79 118.33 82.29 C 124.59 78.79 124.43 68.00 117.86 64.95 C 111.67 62.01 104.61 63.27 98.00 63.00 Z" />
<path fill="#1f9fd9" opacity="1.00" d=" M 184.75 57.50 C 187.41 57.48 190.08 57.49 192.75 57.61 C 201.76 71.15 211.08 84.48 220.20 97.95 C 222.66 101.35 224.72 105.03 227.53 108.16 C 227.47 91.28 227.51 74.39 227.50 57.50 C 229.67 57.50 231.83 57.50 234.00 57.50 C 234.00 77.67 234.00 97.83 234.00 118.00 C 231.34 118.00 228.68 118.00 226.03 118.01 C 214.36 100.82 202.83 83.54 191.06 66.43 C 190.92 83.62 191.04 100.81 191.00 118.00 C 188.92 118.00 186.83 118.00 184.75 118.00 C 184.75 97.83 184.76 77.67 184.75 57.50 Z" />
</g>
<g id="#136ca5fe">
<path fill="#136ca5" opacity="1.00" d=" M 345.22 49.76 C 344.15 45.86 345.06 41.58 344.81 37.54 C 347.50 38.00 350.23 37.92 352.94 37.87 C 353.02 42.13 352.92 46.40 352.93 50.66 L 351.96 50.61 C 349.74 50.16 347.34 50.58 345.22 49.76 Z" />
<path fill="#136ca5" opacity="1.00" d=" M 344.76 106.19 C 347.59 106.03 350.85 106.40 352.96 104.09 C 353.04 104.47 353.22 105.22 353.30 105.60 C 356.50 105.75 359.71 105.73 362.91 105.81 C 363.06 110.21 363.06 114.61 362.94 119.01 C 356.90 119.22 350.81 118.55 344.81 119.40 C 344.78 114.99 344.76 110.59 344.76 106.19 Z" />
</g>
<g id="#b82669ff">
<path fill="#b82669" opacity="1.00" d=" M 248.76 70.89 C 255.99 58.47 272.26 52.59 285.80 57.31 C 290.70 59.02 295.33 61.84 298.61 65.92 L 298.89 66.28 C 295.52 69.68 293.28 73.93 291.62 78.38 L 291.46 78.19 C 287.94 73.16 282.45 69.03 276.05 69.21 C 267.97 68.76 260.79 74.59 258.05 81.94 C 269.00 82.10 279.96 81.91 290.92 82.05 C 290.34 85.58 290.25 89.16 290.27 92.73 C 279.53 92.81 268.78 92.69 258.04 92.79 C 260.43 99.63 266.64 105.05 273.96 105.69 C 279.75 106.37 285.38 103.67 289.29 99.52 C 290.52 99.51 291.74 99.52 292.97 99.56 C 294.34 102.95 296.34 106.04 298.90 108.66 L 298.57 109.09 C 289.85 119.44 273.89 121.88 261.96 115.99 C 253.57 112.02 247.11 104.10 245.04 95.05 C 244.01 86.90 243.98 77.96 248.76 70.89 Z" />
<path fill="#b82669" opacity="1.00" d=" M 303.81 92.19 C 303.44 87.67 303.04 82.76 305.71 78.81 C 307.02 83.30 306.80 88.03 306.63 92.66 L 306.12 92.71 C 305.54 92.58 304.39 92.32 303.81 92.19 Z" />
</g>
<g id="#77202efe">
<path fill="#77202e" opacity="1.00" d=" M 291.62 78.38 C 293.28 73.93 295.52 69.68 298.89 66.28 C 301.71 70.01 304.00 74.14 305.62 78.53 L 305.71 78.81 C 303.04 82.76 303.44 87.67 303.81 92.19 C 304.39 92.32 305.54 92.58 306.12 92.71 C 305.67 92.80 304.77 93.00 304.33 93.10 C 299.83 92.18 295.24 92.62 290.69 92.72 L 290.27 92.73 C 290.25 89.16 290.34 85.58 290.92 82.05 C 293.69 83.06 293.17 79.41 291.62 78.38 Z" />
<path fill="#77202e" opacity="1.00" d=" M 292.97 99.56 C 296.66 99.78 300.36 99.85 304.04 99.40 C 302.99 102.82 301.05 105.84 298.90 108.66 C 296.34 106.04 294.34 102.95 292.97 99.56 Z" />
</g>
</svg>
