<?xml version="1.0" encoding="UTF-8"?>
<svg xmlns="http://www.w3.org/2000/svg" xmlns:xlink="http://www.w3.org/1999/xlink" width="151pt" height="58pt" viewBox="0 0 151 58" version="1.1">
<g id="surface1">
<path style=" stroke:none;fill-rule:nonzero;fill:rgb(5.098039%,5.098039%,5.098039%);fill-opacity:1;" d="M 81.335938 9.425781 C 84.648438 8.992188 88.144531 9.480469 91.070312 11.140625 C 91.820312 11.566406 92.617188 12.160156 92.765625 13.070312 C 92.972656 14.183594 92.945312 15.328125 92.863281 16.453125 C 92.800781 16.996094 92.726562 17.660156 92.210938 17.972656 C 91.761719 18.136719 91.328125 17.828125 90.976562 17.582031 C 89.054688 16.175781 86.789062 15.074219 84.367188 15.074219 C 82.308594 14.976562 80.171875 15.632812 78.6875 17.101562 C 76.742188 18.9375 75.878906 21.621094 75.566406 24.214844 C 75.308594 26.511719 75.363281 28.851562 75.804688 31.121094 C 76.257812 33.339844 77.253906 35.585938 79.128906 36.953125 C 81.167969 38.464844 83.882812 38.703125 86.316406 38.28125 C 88.074219 37.910156 89.730469 37.113281 91.210938 36.105469 C 91.550781 35.894531 91.933594 35.632812 92.355469 35.734375 C 92.699219 35.808594 92.816406 36.195312 92.878906 36.496094 C 93.042969 37.351562 93.019531 38.226562 93.019531 39.089844 C 93 39.816406 92.953125 40.589844 92.5625 41.226562 C 92.0625 41.972656 91.214844 42.351562 90.441406 42.746094 C 87.992188 43.890625 85.257812 44.367188 82.566406 44.296875 C 80.011719 44.253906 77.429688 43.707031 75.179688 42.476562 C 73.578125 41.605469 72.203125 40.355469 71.117188 38.894531 C 68.984375 35.875 68.117188 32.132812 68.007812 28.476562 C 67.847656 24.542969 68.394531 20.472656 70.253906 16.953125 C 71.828125 13.851562 74.597656 11.371094 77.890625 10.242188 C 79 9.828125 80.164062 9.570312 81.335938 9.425781 Z M 81.335938 9.425781 "/>
<path style=" stroke:none;fill-rule:nonzero;fill:rgb(5.098039%,5.098039%,5.098039%);fill-opacity:1;" d="M 35.980469 9.800781 C 37.0625 9.628906 38.167969 9.644531 39.261719 9.699219 C 39.878906 9.753906 40.53125 9.800781 41.089844 10.097656 C 41.375 10.242188 41.515625 10.5625 41.488281 10.878906 C 41.484375 17.394531 41.484375 23.90625 41.488281 30.425781 C 41.492188 31.960938 41.625 33.539062 42.25 34.960938 C 42.949219 36.625 44.429688 37.921875 46.171875 38.382812 C 48.042969 38.882812 50.113281 38.820312 51.886719 38.003906 C 53.3125 37.34375 54.382812 36.050781 54.914062 34.589844 C 55.335938 33.46875 55.484375 32.265625 55.472656 31.074219 C 55.46875 24.382812 55.472656 17.691406 55.472656 11 C 55.46875 10.675781 55.515625 10.289062 55.832031 10.121094 C 56.453125 9.769531 57.199219 9.742188 57.894531 9.6875 C 59.089844 9.652344 60.316406 9.609375 61.484375 9.921875 C 61.925781 10.015625 62.34375 10.378906 62.285156 10.871094 C 62.289062 16.996094 62.285156 23.125 62.285156 29.253906 C 62.304688 31.46875 62.308594 33.730469 61.636719 35.867188 C 61.011719 37.957031 59.855469 39.929688 58.152344 41.320312 C 55.953125 43.171875 53.085938 44.035156 50.261719 44.269531 C 47.546875 44.488281 44.753906 44.320312 42.164062 43.433594 C 40.085938 42.734375 38.191406 41.429688 36.917969 39.632812 C 35.398438 37.539062 34.75 34.929688 34.648438 32.371094 C 34.589844 31.160156 34.613281 29.953125 34.609375 28.742188 C 34.605469 22.832031 34.609375 16.917969 34.605469 11.007812 C 34.613281 10.726562 34.621094 10.394531 34.859375 10.199219 C 35.171875 9.941406 35.59375 9.878906 35.980469 9.800781 Z M 35.980469 9.800781 "/>
<path style=" stroke:none;fill-rule:nonzero;fill:rgb(5.098039%,5.098039%,5.098039%);fill-opacity:1;" d="M 96.902344 18.511719 C 98.054688 18.390625 99.214844 18.425781 100.375 18.4375 C 100.976562 18.464844 101.59375 18.480469 102.183594 18.644531 C 102.566406 18.742188 102.757812 19.121094 102.945312 19.433594 C 104.304688 21.976562 105.648438 24.527344 107.011719 27.066406 C 108.3125 24.621094 109.609375 22.175781 110.902344 19.730469 C 111.066406 19.425781 111.207031 19.105469 111.445312 18.851562 C 111.8125 18.574219 112.289062 18.539062 112.730469 18.480469 C 113.90625 18.390625 115.085938 18.410156 116.265625 18.472656 C 116.683594 18.519531 117.195312 18.539062 117.472656 18.917969 C 117.648438 19.292969 117.425781 19.691406 117.269531 20.03125 C 115.34375 23.589844 113.367188 27.125 111.453125 30.691406 C 113.542969 34.597656 115.714844 38.460938 117.828125 42.355469 C 117.976562 42.679688 118.1875 43.128906 117.890625 43.4375 C 117.488281 43.789062 116.914062 43.8125 116.410156 43.863281 C 115.113281 43.9375 113.808594 43.949219 112.511719 43.871094 C 111.992188 43.828125 111.4375 43.785156 110.988281 43.496094 C 110.753906 43.292969 110.609375 43.007812 110.460938 42.742188 C 109.074219 40.054688 107.675781 37.375 106.285156 34.6875 C 104.945312 37.257812 103.613281 39.828125 102.277344 42.398438 C 102.082031 42.761719 101.914062 43.148438 101.636719 43.457031 C 101.214844 43.792969 100.644531 43.824219 100.132812 43.871094 C 98.878906 43.945312 97.617188 43.949219 96.367188 43.84375 C 95.925781 43.777344 95.335938 43.71875 95.144531 43.242188 C 95.070312 42.867188 95.285156 42.511719 95.453125 42.1875 C 97.574219 38.425781 99.675781 34.65625 101.800781 30.898438 C 99.84375 27.3125 97.851562 23.742188 95.886719 20.164062 C 95.714844 19.804688 95.464844 19.371094 95.683594 18.976562 C 95.972656 18.621094 96.476562 18.585938 96.902344 18.511719 Z M 96.902344 18.511719 "/>
</g>
</svg>
