<?xml version="1.0" encoding="UTF-8"?>
<svg xmlns="http://www.w3.org/2000/svg" xmlns:xlink="http://www.w3.org/1999/xlink" width="151pt" height="58pt" viewBox="0 0 151 58" version="1.1">
<g id="surface1">
<path style=" stroke:none;fill-rule:nonzero;fill:rgb(5.098039%,5.098039%,5.098039%);fill-opacity:1;" d="M 81.449219 11.886719 C 83.796875 11.550781 86.21875 11.769531 88.484375 12.476562 C 89.636719 12.8125 90.738281 13.308594 91.753906 13.953125 C 92.261719 14.289062 92.78125 14.667969 93.09375 15.207031 C 93.429688 15.980469 93.40625 16.855469 93.355469 17.679688 C 93.292969 18.125 93.25 18.671875 92.839844 18.941406 C 92.394531 19.15625 91.945312 18.796875 91.589844 18.554688 C 89.582031 17.027344 87.191406 15.863281 84.636719 15.742188 C 82.375 15.566406 79.984375 16.035156 78.152344 17.4375 C 76.171875 18.890625 74.957031 21.15625 74.269531 23.472656 C 73.441406 26.332031 73.355469 29.355469 73.632812 32.304688 C 73.929688 34.921875 74.691406 37.597656 76.394531 39.660156 C 77.738281 41.324219 79.753906 42.371094 81.851562 42.695312 C 83.976562 43.023438 86.207031 42.859375 88.210938 42.042969 C 89.632812 41.53125 90.882812 40.660156 92.140625 39.835938 C 92.492188 39.585938 93.1875 39.429688 93.351562 39.972656 C 93.578125 40.839844 93.546875 41.765625 93.445312 42.648438 C 93.339844 43.625 92.433594 44.152344 91.6875 44.625 C 88.34375 46.625 84.269531 47.242188 80.445312 46.664062 C 77.320312 46.210938 74.320312 44.644531 72.339844 42.15625 C 70.320312 39.667969 69.285156 36.519531 68.890625 33.375 C 68.402344 28.9375 68.667969 24.277344 70.542969 20.167969 C 71.800781 17.351562 73.910156 14.875 76.648438 13.421875 C 78.132812 12.621094 79.773438 12.101562 81.449219 11.886719 Z M 81.449219 11.886719 "/>
<path style=" stroke:none;fill-rule:nonzero;fill:rgb(5.098039%,5.098039%,5.098039%);fill-opacity:1;" d="M 36.644531 12.128906 C 37.628906 11.9375 38.65625 11.941406 39.644531 12.132812 C 39.988281 12.195312 40.421875 12.402344 40.386719 12.824219 C 40.40625 19.804688 40.382812 26.785156 40.398438 33.765625 C 40.425781 36.136719 40.902344 38.664062 42.5 40.503906 C 43.742188 41.988281 45.628906 42.804688 47.527344 42.992188 C 49.699219 43.207031 52.039062 42.9375 53.871094 41.660156 C 55.613281 40.445312 56.597656 38.40625 56.941406 36.351562 C 57.230469 34.714844 57.125 33.050781 57.148438 31.398438 C 57.152344 25.207031 57.140625 19.015625 57.152344 12.824219 C 57.117188 12.351562 57.636719 12.171875 58.015625 12.109375 C 59 11.945312 60.027344 11.933594 61.003906 12.160156 C 61.382812 12.222656 61.730469 12.535156 61.667969 12.953125 C 61.671875 19.191406 61.667969 25.433594 61.667969 31.671875 C 61.683594 33.996094 61.714844 36.367188 60.996094 38.605469 C 60.308594 40.929688 58.941406 43.085938 56.972656 44.523438 C 55.257812 45.789062 53.191406 46.5 51.09375 46.785156 C 48.625 47.101562 46.066406 47.019531 43.679688 46.253906 C 41.464844 45.566406 39.445312 44.1875 38.117188 42.273438 C 36.632812 40.183594 36.003906 37.601562 35.898438 35.066406 C 35.824219 33.585938 35.867188 32.101562 35.855469 30.621094 C 35.855469 24.734375 35.851562 18.847656 35.855469 12.964844 C 35.777344 12.484375 36.222656 12.179688 36.644531 12.128906 Z M 36.644531 12.128906 "/>
<path style=" stroke:none;fill-rule:nonzero;fill:rgb(5.098039%,5.098039%,5.098039%);fill-opacity:1;" d="M 97.3125 21.191406 C 98.136719 21.082031 98.976562 21.117188 99.808594 21.132812 C 100.390625 21.175781 101.140625 21.175781 101.445312 21.777344 C 103.265625 24.742188 105.074219 27.707031 106.882812 30.675781 C 108.738281 27.722656 110.550781 24.746094 112.402344 21.789062 C 112.859375 21.058594 113.816406 21.132812 114.5625 21.117188 C 115.28125 21.144531 116.046875 21.046875 116.714844 21.359375 C 117.121094 21.582031 116.878906 22.097656 116.699219 22.394531 C 114.382812 26.109375 112.046875 29.808594 109.722656 33.519531 C 112.152344 37.40625 114.582031 41.296875 117.011719 45.1875 C 117.171875 45.480469 117.390625 45.839844 117.210938 46.171875 C 116.863281 46.527344 116.324219 46.542969 115.863281 46.589844 C 114.9375 46.628906 114 46.667969 113.085938 46.492188 C 112.621094 46.421875 112.339844 46.027344 112.125 45.652344 C 110.265625 42.570312 108.398438 39.492188 106.539062 36.414062 C 104.6875 39.503906 102.824219 42.582031 100.972656 45.671875 C 100.785156 45.96875 100.601562 46.316406 100.242188 46.421875 C 99.511719 46.65625 98.730469 46.617188 97.972656 46.617188 C 97.410156 46.582031 96.796875 46.621094 96.296875 46.324219 C 95.894531 46.070312 96.15625 45.570312 96.347656 45.265625 C 98.808594 41.394531 101.277344 37.527344 103.738281 33.65625 C 101.550781 30.15625 99.367188 26.660156 97.179688 23.160156 C 96.933594 22.734375 96.59375 22.339844 96.503906 21.839844 C 96.480469 21.414062 96.96875 21.25 97.3125 21.191406 Z M 97.3125 21.191406 "/>
</g>
</svg>
