<?xml version="1.0" encoding="UTF-8"?>
<svg xmlns="http://www.w3.org/2000/svg" xmlns:xlink="http://www.w3.org/1999/xlink" width="150pt" height="58pt" viewBox="0 0 150 58" version="1.1">
<g id="surface1">
<path style=" stroke:none;fill-rule:nonzero;fill:rgb(0%,12.54902%,37.647059%);fill-opacity:1;" d="M 116.898438 3.007812 C 117.238281 2.910156 117.605469 2.929688 117.953125 2.988281 C 118.023438 3.003906 118.179688 3.082031 118.089844 3.171875 C 117.769531 3.621094 117.386719 4.027344 117.042969 4.457031 C 116.832031 4.765625 116.414062 4.707031 116.09375 4.6875 C 116.011719 4.675781 115.820312 4.644531 115.886719 4.519531 C 116.066406 4.15625 116.316406 3.828125 116.519531 3.472656 C 116.628906 3.308594 116.710938 3.097656 116.898438 3.007812 Z M 116.898438 3.007812 "/>
<path style=" stroke:none;fill-rule:nonzero;fill:rgb(0%,12.54902%,37.647059%);fill-opacity:1;" d="M 53.21875 3.066406 C 53.5625 2.984375 53.929688 2.984375 54.273438 3.070312 C 54.40625 3.09375 54.4375 3.222656 54.425781 3.34375 C 54.425781 5.550781 54.425781 7.757812 54.425781 9.964844 C 54.417969 10.15625 54.453125 10.359375 54.398438 10.542969 C 54.109375 10.714844 53.75 10.660156 53.429688 10.652344 C 53.296875 10.628906 53.058594 10.625 53.0625 10.4375 C 53.046875 8.101562 53.0625 5.765625 53.054688 3.429688 C 53.050781 3.289062 53.042969 3.097656 53.21875 3.066406 Z M 53.21875 3.066406 "/>
<path style=" stroke:none;fill-rule:nonzero;fill:rgb(0%,12.54902%,37.647059%);fill-opacity:1;" d="M 67.058594 3.269531 C 67.066406 3.035156 67.367188 3.054688 67.535156 3.03125 C 67.816406 3.042969 68.191406 2.960938 68.398438 3.195312 C 68.425781 5.554688 68.402344 7.917969 68.410156 10.277344 C 68.402344 10.402344 68.433594 10.59375 68.269531 10.621094 C 68.027344 10.683594 67.773438 10.671875 67.523438 10.648438 C 67.433594 10.625 67.296875 10.621094 67.269531 10.511719 C 67.238281 10.308594 67.253906 10.105469 67.253906 9.902344 C 66.921875 10.242188 66.542969 10.558594 66.082031 10.6875 C 65.445312 10.851562 64.707031 10.734375 64.234375 10.253906 C 63.730469 9.757812 63.574219 9.019531 63.539062 8.335938 C 63.5 7.523438 63.605469 6.644531 64.101562 5.972656 C 64.558594 5.351562 65.414062 5.121094 66.140625 5.316406 C 66.492188 5.414062 66.769531 5.660156 67.046875 5.882812 C 67.058594 5.011719 67.035156 4.140625 67.058594 3.269531 M 65.332031 6.667969 C 65 7.027344 64.929688 7.546875 64.925781 8.019531 C 64.9375 8.476562 64.992188 8.972656 65.300781 9.332031 C 65.582031 9.667969 66.109375 9.65625 66.445312 9.414062 C 66.675781 9.242188 66.894531 9.039062 67.042969 8.789062 C 67.066406 8.253906 67.039062 7.714844 67.050781 7.179688 C 66.832031 6.917969 66.605469 6.648438 66.292969 6.5 C 65.980469 6.347656 65.566406 6.398438 65.332031 6.667969 Z M 65.332031 6.667969 "/>
<path style=" stroke:none;fill-rule:nonzero;fill:rgb(0%,12.54902%,37.647059%);fill-opacity:1;" d="M 103.886719 3.234375 C 104.175781 3.179688 104.496094 3.167969 104.777344 3.28125 C 105.003906 3.386719 105.042969 3.671875 105.042969 3.894531 C 105.046875 4.136719 105.007812 4.453125 104.753906 4.558594 C 104.445312 4.671875 104.097656 4.664062 103.785156 4.578125 C 103.472656 4.476562 103.453125 4.082031 103.472656 3.808594 C 103.472656 3.550781 103.609375 3.269531 103.886719 3.234375 Z M 103.886719 3.234375 "/>
<path style=" stroke:none;fill-rule:nonzero;fill:rgb(0%,12.54902%,37.647059%);fill-opacity:1;" d="M 78.183594 3.5625 C 78.582031 3.507812 79.054688 3.429688 79.410156 3.660156 C 79.441406 5.839844 79.410156 8.019531 79.421875 10.199219 C 79.40625 10.332031 79.476562 10.535156 79.304688 10.585938 C 78.980469 10.695312 78.625 10.671875 78.292969 10.636719 C 78.144531 10.625 77.941406 10.550781 77.988281 10.363281 C 77.984375 8.179688 77.984375 5.992188 77.988281 3.808594 C 77.957031 3.675781 78.058594 3.578125 78.183594 3.5625 Z M 78.183594 3.5625 "/>
<path style=" stroke:none;fill-rule:nonzero;fill:rgb(0%,12.54902%,37.647059%);fill-opacity:1;" d="M 27.125 3.683594 C 27.257812 3.539062 27.46875 3.542969 27.652344 3.542969 C 28.707031 3.542969 29.765625 3.542969 30.820312 3.542969 C 30.925781 3.550781 31.089844 3.527344 31.121094 3.664062 C 31.203125 3.957031 31.210938 4.289062 31.109375 4.578125 C 31.070312 4.691406 30.917969 4.660156 30.828125 4.671875 C 30.035156 4.675781 29.246094 4.667969 28.453125 4.675781 C 28.460938 5.25 28.457031 5.824219 28.457031 6.398438 C 29.144531 6.40625 29.832031 6.394531 30.523438 6.402344 C 30.804688 6.378906 30.792969 6.738281 30.796875 6.929688 C 30.789062 7.136719 30.824219 7.535156 30.515625 7.503906 C 29.828125 7.511719 29.144531 7.503906 28.457031 7.503906 C 28.457031 8.167969 28.457031 8.835938 28.457031 9.5 C 29.246094 9.503906 30.039062 9.5 30.832031 9.5 C 30.949219 9.503906 31.121094 9.488281 31.15625 9.640625 C 31.226562 9.875 31.214844 10.125 31.1875 10.367188 C 31.171875 10.476562 31.125 10.640625 30.980469 10.625 C 29.871094 10.640625 28.761719 10.625 27.652344 10.632812 C 27.472656 10.628906 27.261719 10.640625 27.128906 10.496094 C 27.015625 10.375 27.035156 10.199219 27.027344 10.046875 C 27.03125 8.078125 27.03125 6.105469 27.027344 4.132812 C 27.035156 3.980469 27.015625 3.804688 27.125 3.683594 Z M 27.125 3.683594 "/>
<path style=" stroke:none;fill-rule:nonzero;fill:rgb(0%,12.54902%,37.647059%);fill-opacity:1;" d="M 33.464844 5.3125 C 34.085938 5.199219 34.757812 5.226562 35.324219 5.523438 C 35.5625 5.636719 35.519531 5.9375 35.53125 6.160156 C 35.515625 6.304688 35.554688 6.515625 35.394531 6.589844 C 34.867188 6.367188 34.277344 6.074219 33.703125 6.304688 C 33.359375 6.433594 33.320312 6.957031 33.640625 7.132812 C 34.175781 7.476562 34.855469 7.558594 35.34375 7.988281 C 36.050781 8.609375 35.921875 9.914062 35.113281 10.390625 C 34.371094 10.835938 33.429688 10.84375 32.625 10.574219 C 32.4375 10.496094 32.191406 10.421875 32.136719 10.199219 C 32.082031 9.925781 32.0625 9.621094 32.160156 9.355469 C 32.269531 9.246094 32.417969 9.378906 32.527344 9.417969 C 33.015625 9.6875 33.617188 9.875 34.15625 9.660156 C 34.515625 9.53125 34.582031 8.980469 34.246094 8.785156 C 33.730469 8.445312 33.078125 8.359375 32.601562 7.949219 C 32.09375 7.519531 31.992188 6.730469 32.28125 6.148438 C 32.503906 5.6875 32.988281 5.425781 33.464844 5.3125 Z M 33.464844 5.3125 "/>
<path style=" stroke:none;fill-rule:nonzero;fill:rgb(0%,12.54902%,37.647059%);fill-opacity:1;" d="M 38.21875 5.351562 C 38.890625 5.171875 39.65625 5.234375 40.246094 5.625 C 40.53125 5.800781 40.46875 6.179688 40.46875 6.464844 C 40.453125 6.605469 40.453125 6.835938 40.277344 6.863281 C 40.085938 6.820312 39.941406 6.671875 39.769531 6.582031 C 39.394531 6.347656 38.875 6.285156 38.484375 6.523438 C 38.097656 6.78125 37.976562 7.277344 37.945312 7.714844 C 37.917969 8.222656 37.933594 8.78125 38.234375 9.21875 C 38.511719 9.617188 39.074219 9.671875 39.503906 9.527344 C 39.792969 9.433594 40.015625 9.214844 40.273438 9.066406 C 40.480469 9.007812 40.472656 9.285156 40.488281 9.414062 C 40.480469 9.726562 40.578125 10.15625 40.257812 10.347656 C 39.5625 10.792969 38.65625 10.863281 37.882812 10.589844 C 37.289062 10.375 36.855469 9.835938 36.683594 9.238281 C 36.460938 8.4375 36.46875 7.566406 36.730469 6.777344 C 36.953125 6.09375 37.515625 5.523438 38.21875 5.351562 Z M 38.21875 5.351562 "/>
<path style=" stroke:none;fill-rule:nonzero;fill:rgb(0%,12.54902%,37.647059%);fill-opacity:1;" d="M 48.128906 5.71875 C 48.707031 5.265625 49.488281 5.1875 50.191406 5.292969 C 50.746094 5.375 51.273438 5.683594 51.570312 6.164062 C 51.90625 6.714844 51.972656 7.386719 51.917969 8.015625 C 51.90625 8.222656 51.707031 8.371094 51.503906 8.347656 C 50.519531 8.355469 49.539062 8.347656 48.554688 8.351562 C 48.578125 8.75 48.648438 9.199219 48.988281 9.457031 C 49.421875 9.777344 50.003906 9.738281 50.507812 9.664062 C 50.882812 9.617188 51.21875 9.433594 51.589844 9.378906 C 51.777344 9.570312 51.691406 9.875 51.695312 10.117188 C 51.695312 10.328125 51.511719 10.449219 51.328125 10.5 C 50.539062 10.761719 49.679688 10.835938 48.863281 10.65625 C 48.269531 10.53125 47.722656 10.148438 47.460938 9.585938 C 47.167969 8.957031 47.128906 8.234375 47.195312 7.550781 C 47.269531 6.855469 47.558594 6.148438 48.128906 5.71875 M 48.804688 6.632812 C 48.636719 6.878906 48.589844 7.175781 48.550781 7.464844 C 49.238281 7.464844 49.925781 7.464844 50.613281 7.464844 C 50.605469 7.089844 50.546875 6.660156 50.234375 6.414062 C 49.804688 6.097656 49.105469 6.171875 48.804688 6.632812 Z M 48.804688 6.632812 "/>
<path style=" stroke:none;fill-rule:nonzero;fill:rgb(0%,12.54902%,37.647059%);fill-opacity:1;" d="M 56.007812 5.695312 C 56.699219 5.300781 57.53125 5.195312 58.316406 5.277344 C 58.785156 5.328125 59.285156 5.492188 59.585938 5.878906 C 59.882812 6.265625 59.929688 6.777344 59.925781 7.246094 C 59.921875 8.308594 59.929688 9.371094 59.921875 10.429688 C 59.957031 10.59375 59.773438 10.640625 59.648438 10.648438 C 59.386719 10.664062 59.109375 10.695312 58.863281 10.597656 C 58.730469 10.46875 58.820312 10.246094 58.789062 10.085938 C 58.4375 10.441406 57.980469 10.707031 57.472656 10.742188 C 56.910156 10.789062 56.28125 10.671875 55.878906 10.242188 C 55.480469 9.824219 55.40625 9.183594 55.566406 8.648438 C 55.6875 8.25 56.011719 7.941406 56.386719 7.785156 C 57.074219 7.484375 57.84375 7.503906 58.582031 7.503906 C 58.574219 7.152344 58.621094 6.722656 58.324219 6.46875 C 58.007812 6.242188 57.585938 6.28125 57.222656 6.335938 C 56.808594 6.398438 56.449219 6.621094 56.066406 6.769531 C 55.898438 6.847656 55.800781 6.640625 55.78125 6.503906 C 55.738281 6.226562 55.714844 5.851562 56.007812 5.695312 M 57.191406 8.523438 C 56.796875 8.695312 56.710938 9.277344 56.996094 9.582031 C 57.195312 9.78125 57.503906 9.8125 57.769531 9.761719 C 58.101562 9.695312 58.351562 9.445312 58.582031 9.207031 C 58.578125 8.929688 58.578125 8.648438 58.578125 8.367188 C 58.117188 8.378906 57.625 8.320312 57.191406 8.523438 Z M 57.191406 8.523438 "/>
<path style=" stroke:none;fill-rule:nonzero;fill:rgb(0%,12.54902%,37.647059%);fill-opacity:1;" d="M 70.320312 5.828125 C 70.875 5.3125 71.679688 5.183594 72.410156 5.277344 C 72.976562 5.339844 73.535156 5.621094 73.855469 6.105469 C 74.21875 6.640625 74.289062 7.316406 74.253906 7.945312 C 74.257812 8.148438 74.101562 8.351562 73.886719 8.34375 C 72.886719 8.363281 71.882812 8.34375 70.878906 8.355469 C 70.90625 8.746094 70.972656 9.191406 71.300781 9.445312 C 71.722656 9.773438 72.296875 9.738281 72.796875 9.671875 C 73.203125 9.625 73.570312 9.414062 73.976562 9.378906 C 74.027344 9.699219 74.121094 10.101562 73.910156 10.378906 C 73.457031 10.628906 72.925781 10.695312 72.417969 10.742188 C 71.652344 10.789062 70.800781 10.703125 70.210938 10.160156 C 69.667969 9.660156 69.511719 8.886719 69.496094 8.175781 C 69.472656 7.335938 69.675781 6.414062 70.320312 5.828125 M 71.121094 6.648438 C 70.957031 6.890625 70.914062 7.183594 70.882812 7.464844 C 71.566406 7.464844 72.253906 7.46875 72.9375 7.464844 C 72.929688 7.117188 72.886719 6.734375 72.628906 6.476562 C 72.210938 6.082031 71.429688 6.152344 71.121094 6.648438 Z M 71.121094 6.648438 "/>
<path style=" stroke:none;fill-rule:nonzero;fill:rgb(0%,12.54902%,37.647059%);fill-opacity:1;" d="M 82.035156 6.125 C 82.414062 5.734375 82.863281 5.371094 83.410156 5.28125 C 84.035156 5.171875 84.765625 5.34375 85.132812 5.894531 C 85.539062 6.464844 85.511719 7.199219 85.507812 7.867188 C 85.496094 8.75 85.523438 9.632812 85.492188 10.515625 C 85.273438 10.722656 84.921875 10.648438 84.644531 10.660156 C 84.476562 10.632812 84.15625 10.671875 84.144531 10.433594 C 84.132812 9.449219 84.152344 8.460938 84.136719 7.476562 C 84.132812 7.078125 83.980469 6.589844 83.554688 6.476562 C 83 6.332031 82.519531 6.800781 82.246094 7.226562 C 82.226562 8.246094 82.242188 9.261719 82.242188 10.277344 C 82.238281 10.398438 82.257812 10.574219 82.101562 10.605469 C 81.796875 10.6875 81.46875 10.675781 81.15625 10.640625 C 81.039062 10.621094 80.855469 10.585938 80.875 10.429688 C 80.863281 8.820312 80.867188 7.210938 80.871094 5.605469 C 80.835938 5.390625 81.089844 5.359375 81.242188 5.351562 C 81.5 5.347656 81.792969 5.300781 82.019531 5.457031 C 82.050781 5.679688 82.035156 5.902344 82.035156 6.125 Z M 82.035156 6.125 "/>
<path style=" stroke:none;fill-rule:nonzero;fill:rgb(0%,12.54902%,37.647059%);fill-opacity:1;" d="M 87.324219 5.648438 C 87.90625 5.238281 88.667969 5.207031 89.34375 5.34375 C 89.914062 5.417969 90.496094 5.339844 91.070312 5.386719 C 91.207031 5.492188 91.207031 5.679688 91.214844 5.839844 C 91.214844 6.03125 91.222656 6.253906 91.078125 6.402344 C 90.871094 6.425781 90.660156 6.414062 90.453125 6.410156 C 90.941406 7.175781 90.523438 8.324219 89.683594 8.640625 C 89.101562 8.890625 88.417969 8.917969 87.839844 8.652344 C 87.78125 8.800781 87.675781 8.945312 87.710938 9.109375 C 87.746094 9.273438 87.914062 9.355469 88.066406 9.386719 C 88.796875 9.488281 89.566406 9.355469 90.273438 9.617188 C 90.71875 9.773438 91.082031 10.179688 91.132812 10.660156 C 91.222656 11.21875 90.96875 11.804688 90.507812 12.125 C 89.824219 12.613281 88.941406 12.667969 88.128906 12.613281 C 87.601562 12.566406 87.039062 12.464844 86.632812 12.101562 C 86.261719 11.765625 86.214844 11.183594 86.425781 10.75 C 86.550781 10.484375 86.769531 10.28125 86.988281 10.101562 C 86.746094 9.921875 86.523438 9.667969 86.515625 9.347656 C 86.472656 8.90625 86.734375 8.511719 87.035156 8.210938 C 86.371094 7.496094 86.511719 6.199219 87.324219 5.648438 M 88.324219 6.273438 C 87.726562 6.476562 87.632812 7.433594 88.160156 7.761719 C 88.433594 7.914062 88.785156 7.921875 89.0625 7.785156 C 89.476562 7.558594 89.558594 6.964844 89.339844 6.574219 C 89.140625 6.234375 88.675781 6.160156 88.324219 6.273438 M 87.625 11.0625 C 87.605469 11.222656 87.667969 11.390625 87.804688 11.480469 C 88.054688 11.660156 88.378906 11.683594 88.679688 11.6875 C 89.007812 11.683594 89.378906 11.632812 89.617188 11.382812 C 89.847656 11.148438 89.839844 10.675781 89.511719 10.535156 C 89.054688 10.351562 88.539062 10.453125 88.058594 10.402344 C 87.863281 10.578125 87.636719 10.777344 87.625 11.0625 Z M 87.625 11.0625 "/>
<path style=" stroke:none;fill-rule:nonzero;fill:rgb(0%,12.54902%,37.647059%);fill-opacity:1;" d="M 92.625 5.753906 C 93.179688 5.296875 93.945312 5.191406 94.640625 5.277344 C 95.203125 5.339844 95.757812 5.628906 96.078125 6.109375 C 96.445312 6.664062 96.515625 7.363281 96.464844 8.011719 C 96.449219 8.226562 96.242188 8.371094 96.039062 8.351562 C 95.058594 8.355469 94.078125 8.347656 93.097656 8.351562 C 93.113281 8.800781 93.230469 9.320312 93.664062 9.542969 C 94.242188 9.828125 94.929688 9.71875 95.527344 9.546875 C 95.742188 9.503906 95.960938 9.335938 96.183594 9.414062 C 96.289062 9.652344 96.253906 9.925781 96.230469 10.175781 C 96.203125 10.421875 95.929688 10.476562 95.738281 10.546875 C 94.972656 10.765625 94.144531 10.832031 93.363281 10.648438 C 92.804688 10.515625 92.292969 10.15625 92.03125 9.636719 C 91.734375 9.042969 91.683594 8.359375 91.722656 7.703125 C 91.773438 6.976562 92.042969 6.222656 92.625 5.753906 M 93.375 6.597656 C 93.183594 6.847656 93.132812 7.164062 93.101562 7.464844 C 93.785156 7.464844 94.472656 7.46875 95.15625 7.464844 C 95.148438 7.085938 95.089844 6.652344 94.769531 6.40625 C 94.347656 6.113281 93.683594 6.167969 93.375 6.597656 Z M 93.375 6.597656 "/>
<path style=" stroke:none;fill-rule:nonzero;fill:rgb(0%,12.54902%,37.647059%);fill-opacity:1;" d="M 98.769531 6.121094 C 99.128906 5.753906 99.542969 5.40625 100.054688 5.296875 C 100.664062 5.167969 101.382812 5.296875 101.796875 5.800781 C 102.191406 6.289062 102.25 6.949219 102.242188 7.554688 C 102.230469 8.542969 102.257812 9.53125 102.226562 10.515625 C 102 10.722656 101.652344 10.648438 101.371094 10.660156 C 101.203125 10.636719 100.882812 10.664062 100.875 10.421875 C 100.863281 9.46875 100.875 8.511719 100.871094 7.554688 C 100.867188 7.25 100.820312 6.921875 100.617188 6.683594 C 100.402344 6.4375 100.019531 6.386719 99.730469 6.523438 C 99.496094 6.632812 99.304688 6.816406 99.132812 7.007812 C 99.054688 7.097656 98.953125 7.183594 98.972656 7.316406 C 98.964844 8.355469 98.980469 9.398438 98.96875 10.4375 C 98.964844 10.625 98.730469 10.628906 98.597656 10.652344 C 98.277344 10.660156 97.914062 10.71875 97.628906 10.539062 C 97.554688 10.070312 97.617188 9.589844 97.597656 9.113281 C 97.601562 7.945312 97.59375 6.777344 97.601562 5.605469 C 97.574219 5.355469 97.878906 5.359375 98.054688 5.34375 C 98.28125 5.351562 98.554688 5.304688 98.742188 5.460938 C 98.792969 5.679688 98.761719 5.902344 98.769531 6.121094 Z M 98.769531 6.121094 "/>
<path style=" stroke:none;fill-rule:nonzero;fill:rgb(0%,12.54902%,37.647059%);fill-opacity:1;" d="M 106.855469 5.820312 C 107.417969 5.308594 108.230469 5.183594 108.964844 5.28125 C 109.507812 5.34375 110.042969 5.617188 110.359375 6.074219 C 110.753906 6.632812 110.832031 7.355469 110.773438 8.019531 C 110.757812 8.222656 110.5625 8.367188 110.367188 8.347656 C 109.378906 8.355469 108.394531 8.347656 107.410156 8.351562 C 107.429688 8.753906 107.503906 9.207031 107.847656 9.460938 C 108.253906 9.761719 108.789062 9.738281 109.265625 9.679688 C 109.644531 9.640625 109.992188 9.476562 110.359375 9.386719 C 110.550781 9.34375 110.554688 9.605469 110.5625 9.730469 C 110.558594 9.984375 110.605469 10.363281 110.296875 10.453125 C 109.605469 10.722656 108.84375 10.800781 108.105469 10.726562 C 107.523438 10.664062 106.929688 10.4375 106.554688 9.964844 C 106.117188 9.425781 106.023438 8.699219 106.023438 8.023438 C 106.023438 7.226562 106.242188 6.367188 106.855469 5.820312 M 107.664062 6.625 C 107.488281 6.871094 107.441406 7.175781 107.410156 7.464844 C 108.09375 7.464844 108.78125 7.464844 109.46875 7.464844 C 109.449219 7.144531 109.421875 6.796875 109.210938 6.535156 C 108.824219 6.082031 107.996094 6.125 107.664062 6.625 Z M 107.664062 6.625 "/>
<path style=" stroke:none;fill-rule:nonzero;fill:rgb(0%,12.54902%,37.647059%);fill-opacity:1;" d="M 113.078125 6.167969 C 113.398438 5.738281 113.792969 5.222656 114.390625 5.25 C 114.601562 5.273438 114.953125 5.253906 115.003906 5.523438 C 115.039062 5.875 115.058594 6.246094 114.96875 6.589844 C 114.835938 6.738281 114.640625 6.578125 114.480469 6.570312 C 114.105469 6.453125 113.769531 6.730469 113.554688 7.011719 C 113.4375 7.175781 113.261719 7.335938 113.28125 7.550781 C 113.277344 8.511719 113.289062 9.472656 113.277344 10.433594 C 113.285156 10.617188 113.054688 10.628906 112.921875 10.648438 C 112.617188 10.667969 112.292969 10.695312 112.003906 10.585938 C 111.878906 10.542969 111.917969 10.382812 111.90625 10.28125 C 111.910156 8.722656 111.898438 7.160156 111.910156 5.601562 C 111.894531 5.347656 112.203125 5.359375 112.378906 5.34375 C 112.601562 5.355469 112.871094 5.304688 113.054688 5.460938 C 113.097656 5.695312 113.074219 5.933594 113.078125 6.167969 Z M 113.078125 6.167969 "/>
<path style=" stroke:none;fill-rule:nonzero;fill:rgb(0%,12.54902%,37.647059%);fill-opacity:1;" d="M 119.019531 5.585938 C 119.769531 5.246094 120.625 5.171875 121.429688 5.328125 C 121.890625 5.421875 122.34375 5.683594 122.542969 6.125 C 122.816406 6.746094 122.714844 7.441406 122.734375 8.101562 C 122.71875 8.917969 122.765625 9.738281 122.710938 10.550781 C 122.433594 10.730469 122.0625 10.660156 121.753906 10.632812 C 121.507812 10.582031 121.636719 10.253906 121.597656 10.085938 C 121.265625 10.410156 120.855469 10.667969 120.390625 10.730469 C 119.8125 10.804688 119.15625 10.703125 118.722656 10.28125 C 118.296875 9.863281 118.207031 9.199219 118.375 8.644531 C 118.492188 8.246094 118.816406 7.941406 119.191406 7.785156 C 119.882812 7.484375 120.652344 7.503906 121.390625 7.503906 C 121.382812 7.128906 121.429688 6.621094 121.039062 6.40625 C 120.476562 6.171875 119.832031 6.332031 119.300781 6.582031 C 119.113281 6.652344 118.9375 6.800781 118.734375 6.777344 C 118.535156 6.605469 118.5625 6.308594 118.570312 6.074219 C 118.578125 5.820312 118.8125 5.675781 119.019531 5.585938 M 119.949219 8.550781 C 119.558594 8.761719 119.523438 9.402344 119.886719 9.652344 C 120.097656 9.792969 120.363281 9.804688 120.605469 9.753906 C 120.925781 9.675781 121.167969 9.433594 121.390625 9.203125 C 121.386719 8.925781 121.386719 8.644531 121.390625 8.367188 C 120.910156 8.378906 120.386719 8.3125 119.949219 8.550781 Z M 119.949219 8.550781 "/>
<path style=" stroke:none;fill-rule:nonzero;fill:rgb(0%,12.54902%,37.647059%);fill-opacity:1;" d="M 41.46875 5.484375 C 41.707031 5.277344 42.066406 5.359375 42.359375 5.347656 C 42.523438 5.367188 42.84375 5.355469 42.816406 5.601562 C 42.824219 6.539062 42.8125 7.472656 42.820312 8.40625 C 42.824219 8.707031 42.851562 9.035156 43.042969 9.28125 C 43.265625 9.578125 43.714844 9.628906 44.027344 9.449219 C 44.28125 9.304688 44.492188 9.089844 44.675781 8.863281 C 44.75 8.785156 44.714844 8.664062 44.726562 8.566406 C 44.726562 7.578125 44.722656 6.589844 44.730469 5.601562 C 44.707031 5.367188 44.992188 5.367188 45.152344 5.351562 C 45.453125 5.351562 45.800781 5.289062 46.066406 5.46875 C 46.117188 7.042969 46.070312 8.625 46.089844 10.203125 C 46.070312 10.339844 46.132812 10.570312 45.949219 10.609375 C 45.675781 10.6875 45.378906 10.679688 45.101562 10.628906 C 44.785156 10.550781 44.957031 10.121094 44.917969 9.882812 C 44.554688 10.261719 44.121094 10.609375 43.601562 10.71875 C 42.980469 10.835938 42.257812 10.691406 41.859375 10.164062 C 41.425781 9.601562 41.453125 8.851562 41.449219 8.175781 C 41.464844 7.28125 41.421875 6.378906 41.46875 5.484375 Z M 41.46875 5.484375 "/>
<path style=" stroke:none;fill-rule:nonzero;fill:rgb(0%,12.54902%,37.647059%);fill-opacity:1;" d="M 103.71875 5.402344 C 104.015625 5.320312 104.328125 5.332031 104.628906 5.367188 C 104.757812 5.382812 104.960938 5.425781 104.9375 5.597656 C 104.941406 7.210938 104.945312 8.820312 104.9375 10.433594 C 104.929688 10.652344 104.640625 10.632812 104.488281 10.660156 C 104.195312 10.652344 103.847656 10.714844 103.597656 10.535156 C 103.535156 9.960938 103.589844 9.375 103.570312 8.796875 C 103.574219 7.734375 103.566406 6.675781 103.574219 5.613281 C 103.550781 5.507812 103.625 5.429688 103.71875 5.402344 Z M 103.71875 5.402344 "/>
<path style=" stroke:none;fill-rule:nonzero;fill:rgb(0%,12.54902%,37.647059%);fill-opacity:1;" d="M 116.03125 5.390625 C 116.378906 5.320312 116.742188 5.320312 117.089844 5.398438 C 117.226562 5.421875 117.242188 5.566406 117.234375 5.679688 C 117.238281 7.109375 117.234375 8.539062 117.238281 9.964844 C 117.226562 10.15625 117.257812 10.351562 117.207031 10.539062 C 116.925781 10.71875 116.558594 10.660156 116.238281 10.652344 C 116.101562 10.628906 115.863281 10.625 115.867188 10.433594 C 115.851562 8.878906 115.867188 7.320312 115.859375 5.765625 C 115.855469 5.621094 115.839844 5.410156 116.03125 5.390625 Z M 116.03125 5.390625 "/>
<path style=" stroke:none;fill-rule:nonzero;fill:rgb(0%,12.54902%,37.647059%);fill-opacity:1;" d="M 46.8125 16.480469 C 47.171875 16.445312 47.621094 16.359375 47.929688 16.59375 C 47.964844 18.5625 47.933594 20.53125 47.945312 22.5 C 47.929688 22.992188 47.972656 23.488281 47.921875 23.980469 C 47.652344 24.136719 47.316406 24.097656 47.015625 24.089844 C 46.851562 24.070312 46.546875 24.066406 46.578125 23.824219 C 46.574219 21.464844 46.574219 19.105469 46.574219 16.742188 C 46.546875 16.589844 46.675781 16.496094 46.8125 16.480469 Z M 46.8125 16.480469 "/>
<path style=" stroke:none;fill-rule:nonzero;fill:rgb(0%,12.54902%,37.647059%);fill-opacity:1;" d="M 25.5625 16.820312 C 25.5625 16.703125 25.5625 16.535156 25.714844 16.519531 C 26.0625 16.433594 26.441406 16.429688 26.789062 16.523438 C 26.921875 16.558594 26.925781 16.703125 26.921875 16.816406 C 26.921875 19.15625 26.925781 21.492188 26.921875 23.828125 C 26.960938 24.078125 26.652344 24.089844 26.484375 24.097656 C 26.253906 24.085938 25.976562 24.136719 25.792969 23.976562 C 25.734375 23.773438 25.765625 23.554688 25.761719 23.34375 C 25.4375 23.667969 25.070312 23.976562 24.625 24.109375 C 23.96875 24.292969 23.191406 24.167969 22.714844 23.652344 C 22.199219 23.125 22.070312 22.351562 22.042969 21.640625 C 22.023438 20.859375 22.140625 20.019531 22.628906 19.386719 C 23.089844 18.78125 23.933594 18.554688 24.648438 18.75 C 25.003906 18.851562 25.292969 19.089844 25.5625 19.332031 C 25.5625 18.496094 25.5625 17.660156 25.5625 16.820312 M 23.582031 20.527344 C 23.386719 21.082031 23.394531 21.699219 23.542969 22.265625 C 23.644531 22.625 23.910156 23 24.316406 23.019531 C 24.847656 23.074219 25.253906 22.636719 25.542969 22.25 C 25.589844 21.707031 25.546875 21.160156 25.566406 20.617188 C 25.265625 20.257812 24.90625 19.832031 24.394531 19.847656 C 24.003906 19.847656 23.707031 20.179688 23.582031 20.527344 Z M 23.582031 20.527344 "/>
<path style=" stroke:none;fill-rule:nonzero;fill:rgb(0%,12.54902%,37.647059%);fill-opacity:1;" d="M 86.691406 16.710938 C 87 16.601562 87.34375 16.601562 87.652344 16.691406 C 87.9375 16.773438 87.988281 17.113281 87.980469 17.367188 C 87.980469 17.605469 87.925781 17.90625 87.671875 18 C 87.371094 18.101562 87.027344 18.097656 86.722656 18.011719 C 86.453125 17.929688 86.398438 17.613281 86.402344 17.371094 C 86.402344 17.128906 86.4375 16.816406 86.691406 16.710938 Z M 86.691406 16.710938 "/>
<path style=" stroke:none;fill-rule:nonzero;fill:rgb(0%,12.54902%,37.647059%);fill-opacity:1;" d="M 104.195312 16.703125 C 104.5 16.601562 104.84375 16.601562 105.148438 16.695312 C 105.394531 16.773438 105.457031 17.0625 105.460938 17.289062 C 105.464844 17.539062 105.4375 17.878906 105.171875 17.992188 C 104.871094 18.105469 104.527344 18.09375 104.21875 18.015625 C 103.9375 17.945312 103.878906 17.613281 103.882812 17.363281 C 103.882812 17.117188 103.925781 16.796875 104.195312 16.703125 Z M 104.195312 16.703125 "/>
<path style=" stroke:none;fill-rule:nonzero;fill:rgb(0%,12.54902%,37.647059%);fill-opacity:1;" d="M 35.84375 17.121094 C 35.863281 16.964844 36.046875 16.980469 36.164062 16.976562 C 37.742188 16.980469 39.320312 16.972656 40.898438 16.980469 C 41.160156 16.941406 41.171875 17.257812 41.183594 17.441406 C 41.175781 17.671875 41.222656 17.964844 41.039062 18.140625 C 40.429688 18.171875 39.816406 18.144531 39.207031 18.15625 C 39.210938 19.992188 39.207031 21.835938 39.210938 23.675781 C 39.199219 23.796875 39.238281 23.984375 39.082031 24.023438 C 38.707031 24.125 38.289062 24.125 37.910156 24.03125 C 37.777344 24.007812 37.765625 23.859375 37.769531 23.75 C 37.769531 21.882812 37.769531 20.019531 37.769531 18.15625 C 37.152344 18.15625 36.535156 18.152344 35.917969 18.15625 C 35.753906 17.839844 35.765625 17.460938 35.84375 17.121094 Z M 35.84375 17.121094 "/>
<path style=" stroke:none;fill-rule:nonzero;fill:rgb(0%,12.54902%,37.647059%);fill-opacity:1;" d="M 28.921875 19.183594 C 29.472656 18.730469 30.222656 18.625 30.914062 18.710938 C 31.46875 18.765625 32.011719 19.039062 32.339844 19.5 C 32.734375 20.050781 32.8125 20.761719 32.761719 21.417969 C 32.753906 21.621094 32.578125 21.792969 32.371094 21.78125 C 31.378906 21.792969 30.386719 21.78125 29.394531 21.785156 C 29.40625 22.214844 29.507812 22.707031 29.902344 22.945312 C 30.414062 23.238281 31.046875 23.164062 31.597656 23.046875 C 31.882812 22.992188 32.144531 22.820312 32.441406 22.824219 C 32.617188 23.035156 32.53125 23.351562 32.523438 23.605469 C 32.507812 23.828125 32.273438 23.894531 32.097656 23.957031 C 31.3125 24.199219 30.457031 24.269531 29.652344 24.078125 C 29.078125 23.945312 28.554688 23.5625 28.300781 23.023438 C 28.019531 22.429688 27.976562 21.753906 28.019531 21.105469 C 28.074219 20.386719 28.347656 19.644531 28.921875 19.183594 M 29.675781 20.023438 C 29.480469 20.273438 29.425781 20.59375 29.390625 20.898438 C 30.078125 20.902344 30.765625 20.898438 31.453125 20.898438 C 31.441406 20.507812 31.375 20.046875 31.023438 19.8125 C 30.605469 19.550781 29.976562 19.613281 29.675781 20.023438 Z M 29.675781 20.023438 "/>
<path style=" stroke:none;fill-rule:nonzero;fill:rgb(0%,12.54902%,37.647059%);fill-opacity:1;" d="M 41.894531 18.988281 C 42.484375 18.660156 43.199219 18.625 43.847656 18.75 C 44.433594 18.871094 44.960938 19.265625 45.210938 19.816406 C 45.4375 20.316406 45.484375 20.882812 45.445312 21.421875 C 45.433594 21.613281 45.273438 21.785156 45.078125 21.78125 C 44.074219 21.792969 43.074219 21.78125 42.074219 21.785156 C 42.089844 22.222656 42.199219 22.730469 42.609375 22.960938 C 43.164062 23.253906 43.828125 23.160156 44.410156 23.011719 C 44.652344 22.960938 44.886719 22.792969 45.140625 22.835938 C 45.285156 23.054688 45.21875 23.34375 45.207031 23.589844 C 45.199219 23.828125 44.941406 23.902344 44.757812 23.964844 C 43.941406 24.210938 43.054688 24.277344 42.226562 24.050781 C 41.621094 23.882812 41.101562 23.421875 40.894531 22.820312 C 40.65625 22.144531 40.640625 21.40625 40.757812 20.707031 C 40.878906 20.011719 41.265625 19.332031 41.894531 18.988281 M 42.332031 20.054688 C 42.15625 20.300781 42.109375 20.605469 42.074219 20.898438 C 42.761719 20.898438 43.449219 20.902344 44.136719 20.894531 C 44.117188 20.628906 44.101562 20.351562 43.972656 20.113281 C 43.664062 19.511719 42.695312 19.511719 42.332031 20.054688 Z M 42.332031 20.054688 "/>
<path style=" stroke:none;fill-rule:nonzero;fill:rgb(0%,12.54902%,37.647059%);fill-opacity:1;" d="M 49.917969 19.207031 C 50.484375 18.726562 51.265625 18.621094 51.976562 18.714844 C 52.546875 18.78125 53.097656 19.082031 53.410156 19.574219 C 53.757812 20.113281 53.824219 20.78125 53.785156 21.410156 C 53.785156 21.628906 53.585938 21.800781 53.367188 21.78125 C 52.382812 21.789062 51.398438 21.78125 50.410156 21.785156 C 50.433594 22.210938 50.527344 22.703125 50.917969 22.941406 C 51.398438 23.226562 51.996094 23.167969 52.519531 23.070312 C 52.835938 23.019531 53.121094 22.84375 53.441406 22.816406 C 53.582031 22.890625 53.550781 23.074219 53.566406 23.203125 C 53.5625 23.441406 53.601562 23.789062 53.316406 23.878906 C 52.539062 24.183594 51.671875 24.261719 50.847656 24.117188 C 50.238281 24.015625 49.65625 23.660156 49.363281 23.101562 C 49.054688 22.515625 49 21.828125 49.035156 21.175781 C 49.082031 20.445312 49.339844 19.683594 49.917969 19.207031 M 50.679688 20.046875 C 50.5 20.292969 50.449219 20.601562 50.410156 20.898438 C 51.097656 20.898438 51.785156 20.898438 52.472656 20.898438 C 52.460938 20.515625 52.402344 20.074219 52.070312 19.832031 C 51.648438 19.539062 50.980469 19.609375 50.679688 20.046875 Z M 50.679688 20.046875 "/>
<path style=" stroke:none;fill-rule:nonzero;fill:rgb(0%,12.54902%,37.647059%);fill-opacity:1;" d="M 56.496094 18.742188 C 57.113281 18.621094 57.789062 18.703125 58.324219 19.046875 C 58.628906 19.226562 58.566406 19.632812 58.5625 19.933594 C 58.546875 20.066406 58.515625 20.347656 58.316406 20.285156 C 58.050781 20.164062 57.832031 19.945312 57.546875 19.867188 C 57.160156 19.75 56.679688 19.789062 56.398438 20.109375 C 56.089844 20.464844 56.03125 20.960938 56.027344 21.414062 C 56.03125 21.871094 56.082031 22.371094 56.390625 22.730469 C 56.660156 23.035156 57.109375 23.078125 57.480469 22.992188 C 57.789062 22.925781 58.03125 22.722656 58.28125 22.550781 C 58.355469 22.464844 58.523438 22.464844 58.539062 22.589844 C 58.605469 22.929688 58.628906 23.304688 58.511719 23.632812 C 58.28125 23.890625 57.9375 24.007812 57.613281 24.097656 C 56.878906 24.273438 56.027344 24.199219 55.425781 23.699219 C 54.902344 23.257812 54.679688 22.558594 54.636719 21.886719 C 54.589844 21.113281 54.671875 20.28125 55.117188 19.625 C 55.429688 19.152344 55.945312 18.84375 56.496094 18.742188 Z M 56.496094 18.742188 "/>
<path style=" stroke:none;fill-rule:nonzero;fill:rgb(0%,12.54902%,37.647059%);fill-opacity:1;" d="M 61.222656 18.742188 C 61.964844 18.625 62.785156 18.660156 63.4375 19.070312 C 64.003906 19.421875 64.300781 20.078125 64.386719 20.722656 C 64.492188 21.554688 64.429688 22.464844 63.953125 23.179688 C 63.5625 23.769531 62.875 24.101562 62.183594 24.164062 C 61.460938 24.234375 60.667969 24.152344 60.074219 23.691406 C 59.59375 23.320312 59.34375 22.71875 59.269531 22.125 C 59.167969 21.351562 59.230469 20.523438 59.617188 19.835938 C 59.949219 19.246094 60.566406 18.855469 61.222656 18.742188 M 61.589844 19.796875 C 61.113281 19.863281 60.796875 20.300781 60.707031 20.75 C 60.597656 21.332031 60.597656 21.964844 60.839844 22.515625 C 61.164062 23.257812 62.351562 23.28125 62.757812 22.605469 C 63.015625 22.179688 63.03125 21.660156 63.007812 21.175781 C 62.984375 20.765625 62.898438 20.3125 62.578125 20.023438 C 62.316406 19.777344 61.929688 19.734375 61.589844 19.796875 Z M 61.589844 19.796875 "/>
<path style=" stroke:none;fill-rule:nonzero;fill:rgb(0%,12.54902%,37.647059%);fill-opacity:1;" d="M 66.675781 19.554688 C 67.121094 19.082031 67.703125 18.648438 68.386719 18.683594 C 68.992188 18.667969 69.585938 19.007812 69.84375 19.566406 C 70.207031 19.1875 70.632812 18.828125 71.160156 18.71875 C 71.726562 18.613281 72.378906 18.734375 72.773438 19.1875 C 73.144531 19.628906 73.230469 20.230469 73.234375 20.789062 C 73.238281 21.777344 73.234375 22.765625 73.238281 23.753906 C 73.234375 23.863281 73.238281 24.019531 73.097656 24.039062 C 72.75 24.125 72.378906 24.117188 72.03125 24.046875 C 71.882812 24.039062 71.863281 23.871094 71.871094 23.753906 C 71.871094 22.84375 71.871094 21.9375 71.871094 21.027344 C 71.863281 20.710938 71.835938 20.363281 71.621094 20.109375 C 71.429688 19.875 71.066406 19.820312 70.796875 19.953125 C 70.492188 20.101562 70.273438 20.378906 70.054688 20.628906 C 70.050781 21.714844 70.0625 22.796875 70.050781 23.882812 C 70.046875 24.058594 69.820312 24.058594 69.695312 24.082031 C 69.371094 24.097656 69.007812 24.144531 68.714844 23.976562 C 68.660156 23.230469 68.707031 22.476562 68.691406 21.726562 C 68.671875 21.234375 68.761719 20.707031 68.539062 20.246094 C 68.390625 19.9375 67.992188 19.804688 67.683594 19.925781 C 67.34375 20.0625 67.109375 20.359375 66.878906 20.632812 C 66.878906 21.699219 66.882812 22.769531 66.878906 23.835938 C 66.910156 24 66.734375 24.058594 66.605469 24.070312 C 66.285156 24.109375 65.949219 24.125 65.636719 24.035156 C 65.46875 23.996094 65.523438 23.796875 65.507812 23.671875 C 65.519531 22.085938 65.492188 20.5 65.523438 18.917969 C 65.769531 18.703125 66.144531 18.785156 66.445312 18.796875 C 66.824219 18.832031 66.636719 19.304688 66.675781 19.554688 Z M 66.675781 19.554688 "/>
<path style=" stroke:none;fill-rule:nonzero;fill:rgb(0%,12.54902%,37.647059%);fill-opacity:1;" d="M 81.707031 19.554688 C 82.085938 19.160156 82.539062 18.796875 83.09375 18.710938 C 83.726562 18.605469 84.46875 18.792969 84.828125 19.367188 C 85.191406 19.921875 85.179688 20.617188 85.171875 21.257812 C 85.167969 22.113281 85.175781 22.972656 85.171875 23.828125 C 85.199219 23.964844 85.074219 24.046875 84.957031 24.058594 C 84.648438 24.113281 84.328125 24.113281 84.019531 24.058594 C 83.902344 24.042969 83.785156 23.96875 83.8125 23.832031 C 83.800781 22.898438 83.8125 21.960938 83.808594 21.023438 C 83.800781 20.722656 83.769531 20.402344 83.582031 20.15625 C 83.371094 19.871094 82.949219 19.808594 82.644531 19.964844 C 82.34375 20.113281 82.121094 20.378906 81.90625 20.632812 C 81.898438 21.734375 81.921875 22.839844 81.890625 23.945312 C 81.667969 24.160156 81.300781 24.082031 81.015625 24.09375 C 80.839844 24.070312 80.507812 24.085938 80.539062 23.828125 C 80.53125 22.273438 80.539062 20.714844 80.535156 19.160156 C 80.542969 19.039062 80.511719 18.847656 80.675781 18.824219 C 80.996094 18.761719 81.371094 18.71875 81.671875 18.878906 C 81.738281 19.097656 81.699219 19.332031 81.707031 19.554688 Z M 81.707031 19.554688 "/>
<path style=" stroke:none;fill-rule:nonzero;fill:rgb(0%,12.54902%,37.647059%);fill-opacity:1;" d="M 90.804688 18.742188 C 91.429688 18.621094 92.113281 18.699219 92.652344 19.050781 C 92.933594 19.214844 92.886719 19.582031 92.886719 19.859375 C 92.871094 20.007812 92.882812 20.234375 92.710938 20.296875 C 92.539062 20.28125 92.414062 20.148438 92.269531 20.066406 C 91.902344 19.804688 91.386719 19.714844 90.972656 19.917969 C 90.546875 20.144531 90.398438 20.660156 90.363281 21.109375 C 90.335938 21.640625 90.34375 22.230469 90.667969 22.675781 C 90.921875 23.011719 91.378906 23.082031 91.765625 23.003906 C 92.101562 22.941406 92.367188 22.707031 92.644531 22.523438 C 92.742188 22.433594 92.886719 22.527344 92.878906 22.648438 C 92.917969 22.972656 92.957031 23.332031 92.828125 23.644531 C 92.570312 23.914062 92.195312 24.035156 91.839844 24.121094 C 91.125 24.265625 90.3125 24.175781 89.742188 23.691406 C 89.238281 23.265625 89.015625 22.59375 88.964844 21.949219 C 88.902344 21.167969 88.984375 20.335938 89.414062 19.664062 C 89.722656 19.175781 90.242188 18.847656 90.804688 18.742188 Z M 90.804688 18.742188 "/>
<path style=" stroke:none;fill-rule:nonzero;fill:rgb(0%,12.54902%,37.647059%);fill-opacity:1;" d="M 94.066406 19.117188 C 94.777344 18.722656 95.632812 18.621094 96.433594 18.722656 C 96.886719 18.78125 97.363281 18.949219 97.640625 19.332031 C 97.929688 19.726562 97.96875 20.238281 97.972656 20.710938 C 97.96875 21.753906 97.976562 22.796875 97.96875 23.839844 C 97.996094 23.980469 97.871094 24.070312 97.742188 24.074219 C 97.464844 24.101562 97.171875 24.128906 96.910156 24.035156 C 96.773438 23.90625 96.867188 23.675781 96.835938 23.515625 C 96.492188 23.859375 96.050781 24.125 95.5625 24.171875 C 95.003906 24.226562 94.386719 24.125 93.96875 23.722656 C 93.523438 23.300781 93.433594 22.605469 93.621094 22.039062 C 93.75 21.65625 94.070312 21.367188 94.4375 21.214844 C 95.128906 20.917969 95.894531 20.9375 96.628906 20.9375 C 96.625 20.542969 96.660156 20 96.226562 19.816406 C 95.578125 19.59375 94.882812 19.824219 94.300781 20.125 C 94.167969 20.203125 93.933594 20.292969 93.867188 20.085938 C 93.765625 19.769531 93.71875 19.300781 94.066406 19.117188 M 95.527344 21.855469 C 95.289062 21.90625 95.035156 22.023438 94.933594 22.261719 C 94.820312 22.523438 94.855469 22.878906 95.09375 23.0625 C 95.3125 23.230469 95.617188 23.246094 95.875 23.175781 C 96.179688 23.089844 96.410156 22.859375 96.625 22.640625 C 96.625 22.359375 96.625 22.082031 96.625 21.804688 C 96.257812 21.800781 95.886719 21.785156 95.527344 21.855469 Z M 95.527344 21.855469 "/>
<path style=" stroke:none;fill-rule:nonzero;fill:rgb(0%,12.54902%,37.647059%);fill-opacity:1;" d="M 100.882812 18.746094 C 101.503906 18.617188 102.1875 18.699219 102.730469 19.042969 C 103.046875 19.226562 102.980469 19.640625 102.972656 19.945312 C 102.964844 20.082031 102.914062 20.351562 102.726562 20.285156 C 102.425781 20.148438 102.175781 19.886719 101.835938 19.835938 C 101.4375 19.742188 100.960938 19.851562 100.730469 20.214844 C 100.414062 20.699219 100.417969 21.3125 100.46875 21.867188 C 100.515625 22.265625 100.660156 22.71875 101.042969 22.914062 C 101.515625 23.148438 102.097656 23.011719 102.496094 22.6875 C 102.628906 22.617188 102.757812 22.429688 102.921875 22.515625 C 103.011719 22.707031 102.996094 22.925781 103.003906 23.128906 C 102.996094 23.355469 103.007812 23.640625 102.78125 23.769531 C 102.085938 24.226562 101.171875 24.296875 100.394531 24.023438 C 99.792969 23.808594 99.355469 23.265625 99.1875 22.65625 C 98.96875 21.859375 98.976562 20.984375 99.242188 20.199219 C 99.480469 19.464844 100.117188 18.878906 100.882812 18.746094 Z M 100.882812 18.746094 "/>
<path style=" stroke:none;fill-rule:nonzero;fill:rgb(0%,12.54902%,37.647059%);fill-opacity:1;" d="M 108.460938 18.734375 C 109.21875 18.625 110.054688 18.667969 110.707031 19.117188 C 111.25 19.492188 111.519531 20.148438 111.59375 20.785156 C 111.6875 21.609375 111.617188 22.507812 111.132812 23.207031 C 110.75 23.769531 110.089844 24.089844 109.425781 24.160156 C 108.71875 24.234375 107.945312 24.167969 107.347656 23.746094 C 106.820312 23.378906 106.546875 22.75 106.46875 22.125 C 106.367188 21.328125 106.429688 20.460938 106.859375 19.765625 C 107.203125 19.199219 107.816406 18.839844 108.460938 18.734375 M 108.691406 19.820312 C 108.21875 19.933594 107.949219 20.414062 107.886719 20.867188 C 107.804688 21.429688 107.804688 22.039062 108.058594 22.558594 C 108.414062 23.273438 109.582031 23.261719 109.96875 22.585938 C 110.214844 22.164062 110.230469 21.652344 110.210938 21.179688 C 110.183594 20.773438 110.101562 20.328125 109.792969 20.035156 C 109.503906 19.757812 109.0625 19.722656 108.691406 19.820312 Z M 108.691406 19.820312 "/>
<path style=" stroke:none;fill-rule:nonzero;fill:rgb(0%,12.54902%,37.647059%);fill-opacity:1;" d="M 113.875 19.554688 C 114.238281 19.1875 114.65625 18.839844 115.171875 18.730469 C 115.769531 18.605469 116.472656 18.726562 116.886719 19.214844 C 117.257812 19.648438 117.34375 20.238281 117.347656 20.789062 C 117.34375 21.804688 117.351562 22.816406 117.34375 23.828125 C 117.375 24.058594 117.097656 24.066406 116.941406 24.085938 C 116.628906 24.097656 116.289062 24.132812 116.007812 23.984375 C 115.949219 23.210938 116 22.425781 115.980469 21.652344 C 115.964844 21.175781 116.054688 20.660156 115.804688 20.226562 C 115.625 19.90625 115.1875 19.800781 114.863281 19.945312 C 114.535156 20.089844 114.304688 20.367188 114.078125 20.632812 C 114.078125 21.699219 114.082031 22.769531 114.078125 23.839844 C 114.097656 24.085938 113.773438 24.066406 113.609375 24.09375 C 113.316406 24.085938 112.972656 24.148438 112.726562 23.960938 C 112.6875 22.851562 112.722656 21.742188 112.710938 20.636719 C 112.726562 20.058594 112.679688 19.472656 112.730469 18.898438 C 113.003906 18.707031 113.378906 18.777344 113.691406 18.808594 C 114.015625 18.886719 113.832031 19.316406 113.875 19.554688 Z M 113.875 19.554688 "/>
<path style=" stroke:none;fill-rule:nonzero;fill:rgb(0%,12.54902%,37.647059%);fill-opacity:1;" d="M 119.308594 19.1875 C 119.855469 18.734375 120.601562 18.628906 121.289062 18.707031 C 121.859375 18.761719 122.429688 19.042969 122.753906 19.53125 C 123.125 20.078125 123.199219 20.769531 123.15625 21.414062 C 123.152344 21.625 122.964844 21.796875 122.757812 21.78125 C 121.765625 21.789062 120.773438 21.78125 119.78125 21.785156 C 119.804688 22.195312 119.886719 22.667969 120.253906 22.917969 C 120.742188 23.238281 121.371094 23.167969 121.914062 23.0625 C 122.226562 23.015625 122.507812 22.828125 122.824219 22.824219 C 123.015625 23.015625 122.921875 23.347656 122.917969 23.59375 C 122.90625 23.820312 122.671875 23.894531 122.496094 23.957031 C 121.71875 24.199219 120.878906 24.265625 120.082031 24.089844 C 119.507812 23.960938 118.976562 23.597656 118.710938 23.0625 C 118.414062 22.460938 118.367188 21.769531 118.414062 21.109375 C 118.46875 20.390625 118.734375 19.648438 119.308594 19.1875 M 120.058594 20.03125 C 119.871094 20.28125 119.820312 20.597656 119.78125 20.898438 C 120.46875 20.902344 121.15625 20.898438 121.84375 20.898438 C 121.832031 20.519531 121.777344 20.085938 121.453125 19.839844 C 121.035156 19.542969 120.371094 19.605469 120.058594 20.03125 Z M 120.058594 20.03125 "/>
<path style=" stroke:none;fill-rule:nonzero;fill:rgb(0%,12.54902%,37.647059%);fill-opacity:1;" d="M 125.421875 18.734375 C 126.019531 18.640625 126.664062 18.667969 127.210938 18.949219 C 127.472656 19.058594 127.425781 19.386719 127.4375 19.621094 C 127.410156 19.753906 127.460938 20.03125 127.253906 20.011719 C 126.738281 19.777344 126.144531 19.511719 125.582031 19.746094 C 125.257812 19.882812 125.226562 20.386719 125.535156 20.5625 C 126.058594 20.902344 126.714844 20.980469 127.199219 21.386719 C 127.925781 21.964844 127.855469 23.234375 127.105469 23.761719 C 126.546875 24.160156 125.820312 24.238281 125.15625 24.15625 C 124.792969 24.097656 124.402344 24.023438 124.117188 23.78125 C 123.960938 23.574219 124 23.289062 124.003906 23.046875 C 124.007812 22.933594 124.035156 22.699219 124.207031 22.753906 C 124.535156 22.886719 124.839844 23.085938 125.191406 23.148438 C 125.507812 23.203125 125.871094 23.222656 126.152344 23.039062 C 126.417969 22.871094 126.449219 22.429688 126.183594 22.242188 C 125.824219 21.972656 125.367188 21.886719 124.972656 21.675781 C 124.601562 21.511719 124.265625 21.226562 124.125 20.835938 C 123.964844 20.378906 123.988281 19.839844 124.273438 19.433594 C 124.53125 19.046875 124.976562 18.828125 125.421875 18.734375 Z M 125.421875 18.734375 "/>
<path style=" stroke:none;fill-rule:nonzero;fill:rgb(0%,12.54902%,37.647059%);fill-opacity:1;" d="M 74.542969 19.007812 C 74.554688 18.765625 74.875 18.800781 75.042969 18.777344 C 75.320312 18.792969 75.667969 18.714844 75.890625 18.921875 C 75.933594 19.988281 75.871094 21.058594 75.921875 22.125 C 75.9375 22.511719 76.175781 22.941406 76.59375 22.976562 C 77.121094 23.054688 77.496094 22.597656 77.8125 22.246094 C 77.8125 21.164062 77.804688 20.082031 77.816406 19 C 77.800781 18.828125 78.015625 18.808594 78.140625 18.792969 C 78.449219 18.773438 78.773438 18.742188 79.070312 18.847656 C 79.203125 18.898438 79.160156 19.046875 79.171875 19.15625 C 79.167969 20.714844 79.175781 22.273438 79.167969 23.832031 C 79.203125 24.066406 78.921875 24.078125 78.761719 24.09375 C 78.523438 24.097656 78.261719 24.121094 78.050781 24 C 77.949219 23.792969 78.015625 23.542969 78 23.320312 C 77.617188 23.714844 77.152344 24.082031 76.59375 24.164062 C 76.039062 24.242188 75.414062 24.125 75.027344 23.691406 C 74.617188 23.253906 74.542969 22.621094 74.539062 22.046875 C 74.542969 21.035156 74.53125 20.019531 74.542969 19.007812 Z M 74.542969 19.007812 "/>
<path style=" stroke:none;fill-rule:nonzero;fill:rgb(0%,12.54902%,37.647059%);fill-opacity:1;" d="M 86.703125 18.820312 C 87.023438 18.757812 87.367188 18.753906 87.6875 18.824219 C 87.808594 18.839844 87.898438 18.945312 87.878906 19.070312 C 87.878906 20.65625 87.878906 22.242188 87.875 23.828125 C 87.902344 24.070312 87.59375 24.074219 87.429688 24.089844 C 87.128906 24.089844 86.789062 24.140625 86.527344 23.972656 C 86.46875 22.421875 86.523438 20.867188 86.5 19.3125 C 86.507812 19.132812 86.449219 18.851562 86.703125 18.820312 Z M 86.703125 18.820312 "/>
<path style=" stroke:none;fill-rule:nonzero;fill:rgb(0%,12.54902%,37.647059%);fill-opacity:1;" d="M 104.199219 18.816406 C 104.570312 18.773438 105.019531 18.695312 105.34375 18.925781 C 105.378906 20.480469 105.34375 22.039062 105.359375 23.59375 C 105.351562 23.726562 105.375 23.863281 105.320312 23.988281 C 105.042969 24.132812 104.710938 24.097656 104.40625 24.089844 C 104.242188 24.066406 103.953125 24.066406 103.988281 23.824219 C 103.988281 22.214844 103.980469 20.605469 103.992188 18.996094 C 103.96875 18.878906 104.117188 18.847656 104.199219 18.816406 Z M 104.199219 18.816406 "/>
<path style=" stroke:none;fill-rule:nonzero;fill:rgb(0%,12.54902%,37.647059%);fill-opacity:1;" d="M 84.921875 35.257812 C 86.632812 35.113281 88.433594 35.433594 89.886719 36.390625 C 90.136719 36.578125 90.378906 36.820312 90.445312 37.136719 C 90.5625 37.675781 90.542969 38.230469 90.527344 38.777344 C 90.496094 39.097656 90.488281 39.484375 90.226562 39.714844 C 89.992188 39.867188 89.730469 39.683594 89.539062 39.546875 C 88.78125 38.992188 87.9375 38.53125 87.011719 38.335938 C 86.066406 38.167969 85.050781 38.1875 84.167969 38.605469 C 83.28125 39.019531 82.597656 39.792969 82.1875 40.675781 C 81.664062 41.78125 81.488281 43.015625 81.472656 44.230469 C 81.464844 45.308594 81.558594 46.40625 81.90625 47.433594 C 82.167969 48.210938 82.59375 48.949219 83.226562 49.476562 C 83.84375 50.003906 84.640625 50.289062 85.4375 50.367188 C 86.3125 50.441406 87.210938 50.367188 88.03125 50.03125 C 88.660156 49.804688 89.230469 49.445312 89.792969 49.085938 C 89.984375 48.957031 90.332031 48.882812 90.445312 49.148438 C 90.621094 49.585938 90.582031 50.074219 90.59375 50.535156 C 90.578125 51.042969 90.597656 51.628906 90.210938 52.011719 C 89.839844 52.367188 89.359375 52.582031 88.890625 52.785156 C 87.265625 53.445312 85.453125 53.578125 83.726562 53.296875 C 82.351562 53.0625 81.003906 52.476562 79.996094 51.488281 C 79.007812 50.539062 78.375 49.277344 78.023438 47.964844 C 77.636719 46.5 77.566406 44.964844 77.65625 43.457031 C 77.796875 41.417969 78.429688 39.339844 79.773438 37.765625 C 81.046875 36.253906 82.976562 35.402344 84.921875 35.257812 Z M 84.921875 35.257812 "/>
<path style=" stroke:none;fill-rule:nonzero;fill:rgb(0%,12.54902%,37.647059%);fill-opacity:1;" d="M 61.140625 35.480469 C 61.871094 35.402344 62.617188 35.390625 63.339844 35.53125 C 63.597656 35.578125 63.917969 35.734375 63.886719 36.046875 C 63.894531 39.527344 63.882812 43.007812 63.890625 46.488281 C 63.898438 47.566406 64.140625 48.722656 64.90625 49.527344 C 65.636719 50.292969 66.742188 50.566406 67.769531 50.507812 C 68.664062 50.480469 69.582031 50.15625 70.191406 49.472656 C 70.878906 48.710938 71.125 47.652344 71.128906 46.644531 C 71.132812 43.113281 71.128906 39.582031 71.132812 36.050781 C 71.117188 35.855469 71.234375 35.664062 71.425781 35.605469 C 71.917969 35.429688 72.445312 35.433594 72.960938 35.425781 C 73.441406 35.4375 73.941406 35.4375 74.394531 35.621094 C 74.566406 35.691406 74.664062 35.871094 74.652344 36.050781 C 74.65625 39.554688 74.652344 43.0625 74.652344 46.566406 C 74.65625 47.851562 74.429688 49.167969 73.800781 50.300781 C 73.292969 51.253906 72.484375 52.039062 71.535156 52.546875 C 70.703125 53 69.773438 53.253906 68.839844 53.371094 C 67.328125 53.542969 65.761719 53.484375 64.308594 53.003906 C 63.21875 52.648438 62.21875 51.980469 61.546875 51.042969 C 60.652344 49.828125 60.324219 48.289062 60.324219 46.804688 C 60.320312 43.222656 60.320312 39.636719 60.324219 36.054688 C 60.292969 35.613281 60.808594 35.527344 61.140625 35.480469 Z M 61.140625 35.480469 "/>
</g>
</svg>
