<?xml version="1.0" encoding="UTF-8"?>
<svg xmlns="http://www.w3.org/2000/svg" xmlns:xlink="http://www.w3.org/1999/xlink" width="151pt" height="58pt" viewBox="0 0 151 58" version="1.1">
<g id="surface1">
<path style=" stroke:none;fill-rule:nonzero;fill:rgb(27.45098%,27.45098%,27.45098%);fill-opacity:1;" d="M 82.296875 11.1875 C 85.527344 10.894531 88.886719 11.519531 91.703125 13.167969 C 92.421875 13.644531 93.292969 14.160156 93.480469 15.078125 C 93.644531 16.007812 93.691406 17.011719 93.371094 17.917969 C 93.238281 18.378906 92.679688 18.519531 92.308594 18.25 C 91.226562 17.5625 90.214844 16.742188 89.019531 16.238281 C 86.515625 14.988281 83.53125 14.730469 80.859375 15.554688 C 78.527344 16.28125 76.65625 18.101562 75.5625 20.261719 C 73.859375 23.605469 73.558594 27.476562 73.84375 31.164062 C 74.097656 34.183594 74.960938 37.320312 77.082031 39.566406 C 79.015625 41.625 81.960938 42.425781 84.707031 42.230469 C 87.382812 42.183594 89.878906 40.988281 92.027344 39.464844 C 92.441406 39.207031 93.136719 38.730469 93.511719 39.277344 C 93.820312 40.046875 93.710938 40.917969 93.703125 41.730469 C 93.703125 42.507812 93.230469 43.1875 92.589844 43.589844 C 89.332031 45.851562 85.195312 46.617188 81.296875 46.167969 C 78.238281 45.84375 75.242188 44.496094 73.144531 42.199219 C 70.488281 39.328125 69.328125 35.382812 69.023438 31.546875 C 68.726562 27.324219 69.148438 22.929688 71.027344 19.089844 C 72.378906 16.277344 74.617188 13.855469 77.445312 12.519531 C 78.964844 11.78125 80.625 11.367188 82.296875 11.1875 Z M 82.296875 11.1875 "/>
<path style=" stroke:none;fill-rule:nonzero;fill:rgb(27.45098%,27.45098%,27.45098%);fill-opacity:1;" d="M 37.28125 11.449219 C 38.183594 11.332031 39.109375 11.324219 40 11.511719 C 40.363281 11.582031 40.765625 11.835938 40.722656 12.257812 C 40.75 19.121094 40.71875 25.984375 40.738281 32.847656 C 40.738281 35.136719 41.125 37.53125 42.46875 39.433594 C 43.699219 41.195312 45.773438 42.210938 47.875 42.410156 C 50.25 42.652344 52.867188 42.289062 54.722656 40.660156 C 56.675781 38.898438 57.449219 36.1875 57.460938 33.621094 C 57.492188 26.496094 57.445312 19.371094 57.484375 12.25 C 57.445312 11.625 58.152344 11.503906 58.621094 11.4375 C 59.589844 11.339844 60.605469 11.296875 61.539062 11.617188 C 61.96875 11.753906 61.984375 12.269531 61.980469 12.640625 C 61.972656 18.9375 61.980469 25.238281 61.976562 31.535156 C 62.003906 33.808594 61.960938 36.132812 61.226562 38.308594 C 60.421875 40.839844 58.765625 43.136719 56.46875 44.492188 C 53.734375 46.15625 50.425781 46.53125 47.289062 46.320312 C 43.964844 46.050781 40.558594 44.632812 38.578125 41.832031 C 36.800781 39.421875 36.242188 36.347656 36.234375 33.40625 C 36.21875 26.421875 36.222656 19.433594 36.230469 12.453125 C 36.117188 11.792969 36.726562 11.488281 37.28125 11.449219 Z M 37.28125 11.449219 "/>
<path style=" stroke:none;fill-rule:nonzero;fill:rgb(27.45098%,27.45098%,27.45098%);fill-opacity:1;" d="M 96.710938 21.332031 C 96.597656 20.785156 97.242188 20.601562 97.65625 20.566406 C 98.714844 20.476562 99.796875 20.449219 100.851562 20.625 C 101.265625 20.6875 101.554688 21.015625 101.757812 21.359375 C 103.523438 24.269531 105.292969 27.179688 107.0625 30.089844 C 108.894531 27.132812 110.710938 24.167969 112.550781 21.214844 C 112.949219 20.5 113.847656 20.519531 114.558594 20.503906 C 115.320312 20.519531 116.128906 20.4375 116.847656 20.746094 C 117.324219 20.988281 116.972656 21.566406 116.785156 21.894531 C 114.496094 25.574219 112.183594 29.246094 109.894531 32.929688 C 112.316406 36.8125 114.734375 40.699219 117.152344 44.589844 C 117.386719 44.9375 117.636719 45.554688 117.121094 45.785156 C 116.25 46.121094 115.285156 46.042969 114.367188 46.039062 C 113.660156 46.011719 112.769531 45.972656 112.402344 45.253906 C 110.503906 42.113281 108.621094 38.964844 106.722656 35.828125 C 104.824219 38.988281 102.9375 42.15625 101.027344 45.308594 C 100.625 46.023438 99.699219 46.007812 98.984375 46.042969 C 98.15625 46.03125 97.265625 46.125 96.5 45.753906 C 96.058594 45.480469 96.390625 44.941406 96.582031 44.613281 C 99.027344 40.761719 101.476562 36.914062 103.917969 33.0625 C 101.78125 29.636719 99.652344 26.210938 97.515625 22.785156 C 97.230469 22.3125 96.878906 21.863281 96.710938 21.332031 Z M 96.710938 21.332031 "/>
</g>
</svg>
