<?xml version="1.0" encoding="UTF-8" ?>
<!DOCTYPE svg PUBLIC "-//W3C//DTD SVG 1.1//EN" "http://www.w3.org/Graphics/SVG/1.1/DTD/svg11.dtd">
<svg width="1169pt" height="448pt" viewBox="0 0 1169 448" version="1.1" xmlns="http://www.w3.org/2000/svg">
<g id="#ffffffff">
</g>
<g id="#0d0d0dff">
<path fill="#0d0d0d" opacity="1.00" d=" M 629.58 72.80 C 655.20 69.45 682.28 73.22 704.93 86.06 C 710.72 89.35 716.88 93.92 718.03 100.95 C 719.66 109.55 719.42 118.39 718.81 127.08 C 718.31 131.27 717.73 136.41 713.76 138.81 C 710.27 140.10 706.91 137.71 704.18 135.81 C 689.33 124.94 671.78 116.44 653.03 116.44 C 637.10 115.69 620.56 120.76 609.06 132.10 C 594.00 146.27 587.34 167.01 584.91 187.05 C 582.92 204.77 583.33 222.86 586.77 240.38 C 590.28 257.51 597.98 274.87 612.48 285.42 C 628.27 297.12 649.28 298.94 668.13 295.69 C 681.74 292.81 694.54 286.68 706.00 278.88 C 708.64 277.25 711.60 275.22 714.87 276.02 C 717.54 276.58 718.44 279.57 718.92 281.90 C 720.18 288.50 720.01 295.26 720.00 301.94 C 719.85 307.56 719.50 313.52 716.47 318.43 C 712.60 324.19 706.04 327.13 700.06 330.17 C 681.10 339.03 659.94 342.71 639.09 342.17 C 619.33 341.81 599.35 337.60 581.91 328.09 C 569.53 321.37 558.88 311.72 550.49 300.44 C 533.97 277.10 527.25 248.20 526.42 219.97 C 525.18 189.56 529.39 158.12 543.79 130.95 C 555.97 107.00 577.42 87.84 602.90 79.10 C 611.49 75.91 620.50 73.93 629.58 72.80 Z" />
<path fill="#0d0d0d" opacity="1.00" d=" M 278.50 75.69 C 286.89 74.36 295.44 74.49 303.90 74.91 C 308.69 75.35 313.72 75.71 318.04 78.00 C 320.26 79.12 321.35 81.60 321.13 84.02 C 321.12 134.35 321.12 184.67 321.13 235.00 C 321.17 246.87 322.19 259.05 327.04 270.04 C 332.43 282.90 343.91 292.91 357.39 296.47 C 371.86 300.33 387.89 299.85 401.61 293.54 C 412.65 288.46 420.93 278.47 425.07 267.17 C 428.33 258.52 429.47 249.21 429.38 240.01 C 429.36 188.33 429.38 136.65 429.37 84.97 C 429.34 82.47 429.70 79.46 432.17 78.17 C 436.98 75.45 442.74 75.26 448.12 74.82 C 457.38 74.56 466.87 74.21 475.90 76.64 C 479.32 77.36 482.57 80.17 482.11 83.96 C 482.14 131.29 482.12 178.62 482.12 225.95 C 482.27 243.07 482.28 260.53 477.08 277.03 C 472.27 293.20 463.31 308.42 450.13 319.15 C 433.11 333.47 410.92 340.12 389.04 341.95 C 368.02 343.63 346.42 342.34 326.36 335.49 C 310.28 330.09 295.63 320.01 285.75 306.14 C 274.01 289.95 268.98 269.79 268.20 250.03 C 267.73 240.70 267.91 231.35 267.88 222.01 C 267.87 176.35 267.89 130.68 267.87 85.02 C 267.91 82.86 267.97 80.28 269.82 78.79 C 272.25 76.79 275.50 76.30 278.50 75.69 Z" />
<path fill="#0d0d0d" opacity="1.00" d=" M 750.05 142.99 C 758.97 142.05 767.97 142.32 776.93 142.41 C 781.61 142.63 786.39 142.74 790.93 144.00 C 793.90 144.77 795.40 147.68 796.85 150.11 C 807.35 169.76 817.77 189.45 828.32 209.07 C 838.38 190.19 848.41 171.29 858.43 152.39 C 859.71 150.06 860.80 147.56 862.63 145.60 C 865.47 143.46 869.16 143.19 872.57 142.75 C 881.67 142.05 890.81 142.19 899.93 142.69 C 903.18 143.04 907.15 143.20 909.27 146.13 C 910.66 149.02 908.92 152.09 907.71 154.73 C 892.80 182.22 877.52 209.53 862.70 237.07 C 878.87 267.23 895.67 297.08 912.03 327.15 C 913.19 329.67 914.83 333.14 912.53 335.51 C 909.40 338.23 904.97 338.40 901.05 338.81 C 891.01 339.37 880.93 339.47 870.90 338.86 C 866.86 338.53 862.57 338.20 859.08 335.96 C 857.27 334.39 856.16 332.21 855.02 330.15 C 844.27 309.40 833.45 288.69 822.70 267.94 C 812.33 287.78 802.01 307.65 791.66 327.50 C 790.16 330.30 788.86 333.29 786.70 335.66 C 783.45 338.27 779.03 338.50 775.06 338.88 C 765.35 339.43 755.60 339.47 745.91 338.65 C 742.49 338.13 737.94 337.70 736.46 334.02 C 735.87 331.10 737.56 328.37 738.84 325.87 C 755.25 296.82 771.54 267.69 787.99 238.66 C 772.83 210.96 757.42 183.40 742.20 155.74 C 740.87 152.98 738.95 149.61 740.63 146.59 C 742.88 143.82 746.77 143.55 750.05 142.99 Z" />
</g>
</svg>
