<!DOCTYPE svg PUBLIC "-//W3C//DTD SVG 20010904//EN" "http://www.w3.org/TR/2001/REC-SVG-20010904/DTD/svg10.dtd">
<svg version="1.0" xmlns="http://www.w3.org/2000/svg" width="201px" height="77px" viewBox="0 0 2010 770" preserveAspectRatio="xMidYMid meet">
<g id="layer101" fill="#000609" stroke="none">
 <path d="M544 571 c-23 -10 -52 -34 -65 -52 -23 -32 -24 -42 -27 -217 l-4 -183 54 3 53 3 5 168 c5 162 6 170 29 188 13 10 32 19 43 19 32 0 77 -29 83 -53 3 -12 6 -89 8 -172 l2 -150 25 -8 c15 -5 36 -5 53 2 l27 11 0 170 c0 199 -10 234 -80 270 -51 26 -149 27 -206 1z"/>
 <path d="M999 567 c-78 -42 -115 -122 -107 -237 11 -150 103 -233 241 -217 71 9 101 33 105 85 3 35 0 42 -16 42 -10 0 -27 -7 -38 -15 -10 -8 -38 -15 -62 -15 -35 0 -49 6 -72 28 -47 47 -53 166 -12 221 30 41 67 47 129 21 64 -26 76 -20 71 36 -3 33 -8 42 -38 56 -52 27 -146 24 -201 -5z"/>
 <path d="M1261 576 c-11 -13 -5 -29 31 -96 l43 -81 -37 -69 c-51 -93 -50 -100 12 -100 49 0 50 1 78 49 l28 49 27 -49 c26 -45 31 -49 66 -49 65 0 69 18 22 103 l-41 74 40 74 c51 91 49 104 -10 104 -43 0 -47 -2 -75 -47 -16 -26 -32 -47 -35 -47 -3 -1 -16 20 -30 47 -23 43 -28 47 -66 50 -27 2 -45 -2 -53 -12z"/>
 </g>
<g id="layer102" fill="#0a415a" stroke="none">
 <path d="M545 571 c-23 -10 -49 -31 -59 -47 l-18 -29 27 28 c36 38 64 47 140 47 74 0 104 -10 135 -42 38 -40 44 -68 50 -238 l6 -165 2 173 c2 202 -8 236 -78 272 -51 26 -149 27 -205 1z"/>
 <path d="M1000 567 c-24 -12 -50 -34 -58 -47 -16 -25 -16 -25 14 2 16 15 42 32 57 37 40 16 132 14 172 -3 31 -13 35 -19 35 -50 0 -20 5 -36 11 -36 6 0 9 17 7 43 -3 37 -7 44 -38 59 -52 26 -146 24 -200 -5z"/>
 <path d="M1265 581 c-4 -7 8 -11 34 -11 40 0 41 -1 72 -62 23 -46 33 -58 40 -47 19 28 49 89 44 89 -2 0 -13 -16 -23 -37 l-19 -36 -29 54 c-27 51 -32 54 -71 57 -22 2 -44 -2 -48 -7z"/>
 <path d="M1472 578 c-8 -10 -1 -12 39 -10 27 2 49 2 49 -1 0 -3 -21 -41 -46 -86 l-45 -81 42 -80 c26 -49 46 -77 52 -71 6 6 -7 38 -32 84 l-41 74 40 74 c23 40 39 80 38 89 -4 20 -80 26 -96 8z"/>
 <path d="M577 488 c-9 -7 -21 -26 -27 -41 -13 -37 -14 -317 0 -317 6 0 10 60 10 159 0 145 2 161 21 185 22 29 22 33 -4 14z"/>
 <path d="M1037 476 c-63 -59 -60 -206 6 -262 36 -30 83 -31 138 -3 l41 20 -3 -44 c-3 -35 -1 -43 8 -35 7 6 13 28 13 49 0 43 -19 52 -56 24 -29 -22 -96 -19 -127 5 -60 48 -63 185 -5 248 28 29 18 28 -15 -2z"/>
 <path d="M1394 318 c-9 -18 -24 -43 -32 -55 -8 -13 -10 -23 -5 -23 12 0 67 99 60 107 -3 2 -13 -10 -23 -29z"/>
 </g>
<g id="layer103" fill="#126e98" stroke="none">
 <path d="M648 580 c77 -7 108 -23 146 -74 19 -24 22 -46 27 -204 l5 -177 2 173 c2 156 0 177 -18 212 -29 56 -80 80 -167 79 l-68 -2 73 -7z"/>
 <path d="M1013 575 c-18 -8 -33 -16 -33 -19 0 -3 16 2 35 10 47 19 122 17 172 -5 37 -17 42 -24 46 -58 4 -34 4 -33 3 7 -1 41 -4 47 -36 62 -43 22 -141 23 -187 3z"/>
 <path d="M1266 581 c-3 -5 3 -7 14 -4 41 11 66 -6 98 -64 17 -32 31 -51 31 -43 1 8 -12 38 -27 65 -25 46 -30 50 -69 53 -22 2 -44 -1 -47 -7z"/>
 <path d="M1477 583 c-3 -4 14 -8 36 -8 37 0 42 -3 41 -23 0 -14 3 -19 9 -13 5 5 7 17 5 27 -2 14 -14 20 -45 22 -22 2 -43 -1 -46 -5z"/>
 <path d="M566 468 c-13 -18 -16 -51 -14 -183 l2 -160 6 166 c3 119 9 171 19 183 7 9 11 16 8 16 -3 0 -13 -10 -21 -22z"/>
 <path d="M1505 450 c-9 -16 -13 -30 -11 -30 3 0 12 14 21 30 9 17 13 30 11 30 -3 0 -12 -13 -21 -30z"/>
 <path d="M1009 423 c-17 -44 -7 -148 17 -180 30 -41 66 -56 106 -44 l33 9 -41 1 c-52 1 -90 30 -104 79 -13 47 -13 103 0 136 5 14 7 26 5 26 -3 0 -10 -12 -16 -27z"/>
 <path d="M1480 401 c0 -8 66 -138 77 -150 1 -2 6 -2 9 2 6 6 -73 157 -82 157 -2 0 -4 -4 -4 -9z"/>
 <path d="M1184 224 c-18 -14 -18 -15 4 -4 31 15 45 3 40 -35 -2 -19 0 -31 4 -29 4 3 8 23 8 45 0 31 -4 39 -18 39 -10 0 -27 -7 -38 -16z"/>
 </g>

</svg>